<svg width="1440" height="735" viewBox="0 0 1440 735" fill="none" xmlns="http://www.w3.org/2000/svg">
<rect x="-238.963" y="42.3828" width="1635.94" height="713.321" rx="133" transform="rotate(-14.0742 -238.963 42.3828)" fill="#001509"/>
<path d="M1040.33 -37.2196C1064.46 -54.5751 1076.53 -63.2529 1089.42 -61.1466C1102.31 -59.0403 1110.98 -46.9726 1128.34 -22.8372L1406.5 364L1033.74 461.025C1014.23 466.105 1004.47 468.646 995.512 465.595C986.557 462.545 980.379 454.576 968.022 438.637L797.087 218.166C778.262 193.886 768.85 181.746 770.772 168.49C772.693 155.234 785.164 146.266 810.107 128.33L1040.33 -37.2196Z" fill="#CCE9D8" fill-opacity="0.05"/>
<rect x="-124.52" y="-447.429" width="796.673" height="412" rx="31.5306" transform="rotate(57.4181 -124.52 -447.429)" fill="#CCE9D8" fill-opacity="0.05"/>
</svg>
