<svg width="214" height="210" viewBox="0 0 214 210" fill="none" xmlns="http://www.w3.org/2000/svg">
<g clip-path="url(#clip0_199_1983)">
<path opacity="0.3" d="M187.809 179.177C182.315 184.837 181.163 185.652 177.399 188.164C140.691 212.661 87.5767 206.74 74.6033 204.327C53.6726 200.433 43.3931 199.059 28.2125 185.351C-6.28229 154.203 -4.60452 89.2265 21.7538 48.9765C24.8794 44.2042 50.7374 7.17356 92.7893 1.67953C93.8174 1.5452 142.535 -4.88465 175.406 22.64C180.112 26.5803 187.684 33.6862 194.706 44.5258C220.381 84.1571 220.462 145.538 187.809 179.177V179.177Z" fill="#FEF703"/>
<path d="M90.8686 162.502L86.6686 200.154H135.402L129.054 162.502H90.8686Z" fill="#0D1A23"/>
<path d="M0.283325 70.5975V164.563C0.283325 172.293 6.44636 178.615 14.1782 178.814C48.5176 179.699 168.621 181.845 201.31 181.363C206.929 181.28 211.48 176.787 211.642 171.173C212.272 149.343 213.296 96.8505 209.507 72.4804C208.709 67.3483 204.375 63.5102 199.181 63.3445C170.409 62.4244 43.0916 59.5035 10.4179 60.2371C4.78278 60.3639 0.283325 64.9639 0.283325 70.5975Z" fill="#1F4257"/>
<path d="M6.18237 70.1405V159.414C6.18237 163.928 9.80747 167.605 14.3226 167.673L196.607 169.923C201.083 169.99 204.753 166.39 204.77 161.917L205.074 73.4404C205.086 70.2412 202.536 67.6196 199.336 67.5419L12.7105 63.774C9.13098 63.6867 6.18312 66.5628 6.18312 70.1412L6.18237 70.1405Z" fill="url(#paint0_linear_199_1983)"/>
<path opacity="0.65" d="M206.142 173.567H206.138L6.17881 170.162C6.0474 170.159 5.94286 170.051 5.9451 169.92C5.94734 169.789 6.05038 169.692 6.18703 169.686L206.146 173.091C206.277 173.094 206.382 173.202 206.38 173.333C206.377 173.463 206.271 173.567 206.142 173.567Z" fill="white"/>
<path d="M6.18237 70.1405V159.414C6.18237 163.928 9.80747 167.605 14.3226 167.673L196.607 169.923C201.083 169.99 204.753 166.39 204.77 161.917L205.074 73.4404C205.086 70.2412 202.536 67.6196 199.336 67.5419L12.7105 63.774C9.13098 63.6867 6.18312 66.5628 6.18312 70.1412L6.18237 70.1405Z" fill="white"/>
<path opacity="0.65" d="M108.134 177.726C106.856 177.726 105.816 176.687 105.816 175.409C105.816 174.132 106.856 173.092 108.134 173.092C109.413 173.092 110.453 174.132 110.453 175.409C110.453 176.687 109.413 177.726 108.134 177.726ZM108.134 173.567C107.118 173.567 106.292 174.394 106.292 175.409C106.292 176.425 107.118 177.251 108.134 177.251C109.151 177.251 109.977 176.425 109.977 175.409C109.977 174.394 109.151 173.567 108.134 173.567Z" fill="white"/>
<path d="M145.9 207.857H74.575C72.6374 207.857 71.1821 206.479 71.5569 204.997L72.4723 201.379C72.7479 200.291 73.9448 199.493 75.3672 199.448L144.127 197.303C145.613 197.257 146.928 198.045 147.252 199.176L148.903 204.938C149.331 206.435 147.869 207.855 145.9 207.855V207.857Z" fill="#1F4257"/>
<path d="M112.97 200.434C112.84 200.434 112.734 200.329 112.733 200.2C112.731 200.068 112.836 199.96 112.967 199.959L115.914 199.915C116.041 199.912 116.153 200.018 116.155 200.15C116.156 200.281 116.052 200.389 115.92 200.391L112.974 200.434H112.97Z" fill="white"/>
<path d="M74.1969 205.868C74.1842 205.868 74.1715 205.867 74.1588 205.865C74.0289 205.844 73.9408 205.722 73.9617 205.592L74.3821 202.961C74.6083 201.545 75.8142 200.501 77.2493 200.48L108.501 200.023C108.635 200.032 108.74 200.126 108.742 200.257C108.743 200.389 108.639 200.497 108.507 200.498L77.256 200.955C76.0524 200.973 75.0414 201.848 74.8517 203.036L74.4313 205.667C74.4127 205.784 74.3119 205.867 74.1969 205.867V205.868Z" fill="white"/>
<path opacity="0.5" d="M183.074 167.686L25.6901 165.873C21.113 165.82 17.429 161.986 17.429 157.276V99.1804C17.429 94.3782 21.2512 90.5065 25.9171 90.5834L183.301 93.1759C187.862 93.2513 191.522 97.0782 191.522 101.773V159.089C191.522 163.874 187.724 167.739 183.074 167.686Z" fill="#B2CEDF"/>
<path opacity="0.78" d="M187.646 89.0584L21.4616 87.4606C19.3687 87.4405 17.6857 86.1927 17.6857 84.6606V78.9472C17.6857 77.3837 19.4351 76.1233 21.5714 76.1472L187.755 78.0397C189.845 78.0636 191.522 79.3099 191.522 80.8397V86.2584C191.522 87.8188 189.778 89.0785 187.646 89.0584Z" fill="#B2CEDF"/>
<path opacity="0.78" d="M127.265 159.828L32.8152 158.512C28.9079 158.457 25.7636 155.284 25.7472 151.379L25.5508 104.7C25.5344 100.731 28.7481 97.5056 32.7189 97.5056H127.365C131.324 97.5056 134.533 100.713 134.533 104.67V152.665C134.533 156.66 131.263 159.883 127.265 159.828Z" fill="#B2CEDF"/>
<path opacity="0.78" d="M182.928 127.172H144.106C141.935 127.172 140.175 125.413 140.175 123.244V101.52C140.175 99.3171 141.988 97.5448 144.192 97.5933L183.014 98.4462C185.151 98.4933 186.858 100.237 186.858 102.373V123.245C186.858 125.414 185.098 127.173 182.928 127.173L182.928 127.172Z" fill="#B2CEDF"/>
<path opacity="0.78" d="M183.095 129.719H143.939C141.86 129.719 140.175 131.403 140.175 133.48V155.625C140.175 157.702 141.86 159.386 143.939 159.386H183.095C185.173 159.386 186.858 157.702 186.858 155.625V133.48C186.858 131.403 185.173 129.719 183.095 129.719Z" fill="#B2CEDF"/>
<path d="M11.8961 203.783C11.8961 203.783 10.9911 205.209 10.7634 209.201C10.7425 209.573 11.0367 209.89 11.41 209.89H18.4899C18.7752 209.89 18.9783 209.611 18.8872 209.342C18.472 208.115 17.2176 205.122 14.4191 203.412L11.8968 203.783H11.8961Z" fill="#132835"/>
<path d="M11.5874 201.077L11.9876 204.433C12.022 204.723 12.249 204.955 12.5387 204.988C12.9262 205.032 13.4884 205.064 14.0358 204.973C14.533 204.891 14.8907 204.449 14.8907 203.945V200.705L11.5867 201.076L11.5874 201.077Z" fill="#9B5B07"/>
<path d="M29.4119 203.413C29.4119 203.413 28.0567 205.519 28.0858 208.408C28.0925 209.089 28.663 209.631 29.3439 209.631H40.3394C40.8546 209.631 41.063 208.97 40.6418 208.675C38.5609 207.214 34.4713 204.486 31.5138 203.414H29.4119V203.413Z" fill="#132835"/>
<path d="M28.2797 199.789L29.1339 203.934C29.2294 204.397 29.6834 204.709 30.1456 204.606C30.4263 204.543 30.7579 204.423 31.1125 204.201C31.4493 203.991 31.6195 203.591 31.5508 203.2L30.6675 198.179L28.2804 199.789H28.2797Z" fill="#9B5B07"/>
<path d="M13.1565 142.165C13.1565 142.165 10.187 144.782 9.62777 147.93C9.06851 151.078 11.2115 202.249 11.2115 202.249C11.2115 202.249 14.181 202.743 15.7117 201.816C15.7117 201.816 17.5276 168.606 18.9074 160.932C18.9074 160.932 26.1449 195.333 28.1505 201.549C28.1505 201.549 31.0117 201.896 31.9339 201.352C31.9339 201.352 30.0381 156.759 27.6554 148.831L13.1558 142.164L13.1565 142.165Z" fill="#001D0C"/>
<path d="M18.8203 159.854C18.6769 159.854 18.5462 159.758 18.5089 159.613L17.2791 154.899L14.6598 153.219C14.5097 153.123 14.4664 152.924 14.5627 152.774C14.6591 152.624 14.8577 152.581 15.0085 152.677L17.7339 154.425C17.8018 154.468 17.8511 154.536 17.872 154.615L19.1331 159.451C19.1779 159.624 19.0749 159.8 18.9024 159.845C18.8748 159.852 18.8479 159.855 18.821 159.855L18.8203 159.854Z" fill="#000F06"/>
<path d="M42.4632 112.596C29.9617 111.559 26.6942 114.145 26.6942 114.145L32.7019 123.625C32.7019 123.625 44.9862 123.382 53.788 116.602C52.1408 114.829 50.9969 112.869 50.2629 111.344C47.9931 112.286 45.3797 112.839 42.4632 112.597V112.596Z" fill="#00672A"/>
<path d="M62.0408 94.2558C62.0237 93.8551 61.4808 93.7469 61.3106 94.1096L59.7157 97.5118C59.4073 98.1693 59.3088 98.9051 59.4327 99.6207L59.992 101.601C60.1592 102.566 59.9068 103.556 59.2946 104.321C57.8289 106.153 54.707 109.498 50.2628 111.344C50.9968 112.87 52.1407 114.829 53.7879 116.602C57.0172 114.114 59.7792 110.747 61.2919 106.187C62.0169 105.965 62.5015 105.283 62.4724 104.525L62.0401 94.2558H62.0408Z" fill="#9B5B07"/>
<path d="M46.5786 118.094C42.1777 113.355 33.7941 111.213 28.9407 110.333C26.8142 109.948 24.7183 111.13 23.9649 113.155C21.7809 119.023 15.8403 134.29 14.689 136.915C13.7444 139.068 12.7581 141.17 12.1316 142.484C11.7575 143.269 12.0846 144.209 12.8686 144.586C16.9521 146.553 24.3001 148.779 27.2786 149.647C27.9342 149.838 28.586 149.347 28.586 148.665C28.586 148.086 28.7436 147.518 29.0415 147.022L40.323 128.232C47.3552 136.024 53.513 136.737 58.2431 135.031C57.4479 132.574 56.9275 130.112 56.6774 127.647C49.6885 126.45 46.5779 118.094 46.5779 118.094L46.5786 118.094Z" fill="#00933C"/>
<path d="M68.2288 126.339L66.9676 124.658C62.8848 127.461 59.4718 128.125 56.6777 127.647C56.9271 130.114 57.4476 132.575 58.2435 135.031C64.4752 132.784 68.2295 126.339 68.2295 126.339H68.2288Z" fill="#9B5B07"/>
<path d="M67.3399 126.369L74.4452 126.646L80.9875 122.994C80.0482 122.406 74.7379 123.608 74.7379 123.608C74.7379 123.608 69.1864 122.769 67.6841 122.767C66.4364 122.765 66.6148 124.559 66.7104 125.167C66.7298 125.291 66.7462 125.365 66.7462 125.365L67.3391 126.369H67.3399Z" fill="#9B5B07"/>
<path d="M35.6167 101.626L31.8677 110.77C31.8677 110.77 36.1752 113.75 39.6405 113.466L41.5117 105.244L35.6167 101.626Z" fill="#9B5B07"/>
<path d="M41.9493 95.3948C42.0352 95.5164 44.6613 104.999 44.6613 104.999L39.212 106.383L35.3868 97.7649C35.3868 97.7649 40.512 93.3597 41.9493 95.3948Z" fill="#9B5B07"/>
<path d="M37.4395 99.0731L39.0978 103.767C39.1195 103.828 39.1479 103.883 39.1844 103.935C39.4092 104.254 40.2641 105.297 41.2781 104.358C42.198 103.506 43.0507 102.742 43.8377 102.603C44.1909 102.541 44.5336 102.756 44.6292 103.102C44.8674 103.964 45.3691 105.916 45.5454 107.678C45.5812 108.035 45.334 108.358 44.9809 108.425C43.9169 108.628 41.6597 108.991 39.7758 108.858C39.5204 108.84 39.2957 108.687 39.1897 108.454C38.6707 107.321 37.0796 103.881 36.4882 102.99C35.9327 102.154 34.5715 102.178 34.001 102.229C33.8136 102.245 33.6299 102.185 33.4888 102.062C32.9893 101.625 32.1717 96.6708 33.1282 95.4835C34.1004 94.2768 42.0382 93.1425 42.1853 94.8574C42.3324 96.5723 41.4439 96.9566 39.8998 96.841C38.7252 96.7529 37.8539 97.9163 37.5029 98.479C37.3917 98.6574 37.37 98.876 37.4395 99.0738V99.0731Z" fill="black"/>
<path d="M37.109 104.694C37.109 104.694 36.7245 101.716 35.485 101.571C34.2456 101.425 33.0397 102.443 34.2717 104.114C35.8046 106.193 37.109 104.694 37.109 104.694Z" fill="#8E5006"/>
<path d="M65.1198 82.0735L137.485 81.6175C139.142 81.607 140.487 82.8712 140.475 84.4265L140.17 121.949C140.157 123.513 138.777 124.762 137.111 124.715L65.529 122.695C63.9393 122.65 62.6692 121.437 62.6483 119.944L62.1689 84.8973C62.148 83.3511 63.4711 82.0839 65.1191 82.0735H65.1198Z" fill="url(#paint1_linear_199_1983)"/>
<path d="M137.202 122.428L65.6035 120.407C65.3265 120.4 65.1069 120.184 65.1025 119.916L64.6238 84.8687C64.6216 84.7306 64.6746 84.606 64.7762 84.5082C64.8755 84.4142 64.9994 84.3642 65.1361 84.3634L137.502 83.9075C137.642 83.9075 137.767 83.956 137.866 84.0485C137.969 84.1463 138.023 84.2717 138.021 84.4105L137.716 121.932C137.714 122.205 137.483 122.428 137.202 122.428ZM137.539 84.4067L65.139 84.844L65.5833 119.909L65.6169 119.927L137.209 121.947L137.539 84.4067Z" fill="white"/>
<path d="M69.2937 89.5562C69.2937 90.7659 70.0441 91.7472 70.9707 91.7472H132.52C133.446 91.7472 134.197 90.7659 134.197 89.5562C134.197 88.3465 133.447 87.3651 132.52 87.3651H70.9707C70.0449 87.3651 69.2937 88.3457 69.2937 89.5562Z" fill="white"/>
<path d="M69.5962 94.061H95.5102C96.4279 94.061 97.1716 94.7595 97.1716 95.6207V115.705C97.1716 116.583 96.3995 117.288 95.4647 117.264L70.0815 116.604C69.199 116.58 68.4896 115.913 68.4672 115.085L67.9371 95.661C67.9132 94.7842 68.6636 94.0618 69.5977 94.0618L69.5962 94.061Z" fill="white"/>
<path d="M102.579 94.5558H131.505C132.134 94.5558 132.644 95.1438 132.644 95.87C132.644 96.5961 132.134 97.1841 131.505 97.1841H102.579C101.949 97.1841 101.439 96.5961 101.439 95.87C101.439 95.1438 101.949 94.5558 102.579 94.5558Z" fill="white"/>
<path d="M101.439 101.496C101.439 102.22 101.948 102.808 102.576 102.808H131.507C132.135 102.808 132.644 102.22 132.644 101.496V100.685C132.644 99.9479 132.118 99.3554 131.479 99.3733L102.549 100.184C101.931 100.201 101.439 100.783 101.439 101.495V101.496Z" fill="white"/>
<path d="M160.448 97.5265C160.448 97.5265 160.921 118.124 182.589 121.735L186.48 117.897C186.48 117.897 167.716 111.521 162.833 98.1967L163.876 91.1302L163.14 86.4534L160.448 97.5265Z" fill="#A05F18"/>
<path d="M197.487 89.685L111.522 91.788C108.037 91.8731 105.059 89.2947 104.647 85.835L97.8224 28.5178C97.358 24.6164 100.31 21.144 104.238 20.9731L195.578 16.9984C199.357 16.8343 202.534 19.8007 202.627 23.5798L204.076 82.7686C204.167 86.497 201.217 89.5932 197.487 89.685Z" fill="#00933C"/>
<path opacity="0.19" d="M194.002 86.6697L114.613 88.6122C111.395 88.6906 108.646 86.3645 108.267 83.2413L101.993 31.501C101.566 27.9794 104.295 24.8428 107.922 24.6868L192.276 21.0525C195.765 20.9025 198.698 23.5794 198.782 26.9906L200.09 80.4227C200.172 83.7883 197.446 86.5854 194.001 86.6697H194.002Z" fill="white"/>
<path opacity="0.52" d="M137.743 72.5465L114.122 73.6055C113.319 73.6413 112.56 71.5741 112.386 68.8801L111.005 47.4309C110.815 44.4756 111.4 41.9383 112.28 41.8988L136.319 40.8212C137.16 40.7831 137.946 43.0488 138.073 45.8816L139.036 67.3495C139.163 70.1816 138.583 72.5085 137.742 72.5465H137.743Z" fill="white"/>
<path d="M194.963 42.7422L141.391 45.1437C141.14 45.1549 140.927 44.9609 140.916 44.7094L140.787 41.8445C140.776 41.593 140.97 41.3803 141.222 41.3691L194.793 38.9676C195.045 38.9564 195.258 39.1505 195.269 39.402L195.397 42.2669C195.409 42.5184 195.214 42.7311 194.963 42.7422Z" fill="white"/>
<path d="M195.834 56.1688L142.262 58.5703C142.011 58.5815 141.798 58.3874 141.787 58.1359L141.658 55.271C141.647 55.0195 141.841 54.8068 142.093 54.7956L195.665 52.3941C195.915 52.3829 196.129 52.577 196.14 52.8285L196.269 55.6934C196.28 55.9449 196.086 56.1576 195.834 56.1688Z" fill="white"/>
<path d="M170.702 36.9818L111.531 39.634C111.279 39.6452 111.066 39.4512 111.055 39.1997L110.927 36.3347C110.916 36.084 111.11 35.8706 111.361 35.8594L170.533 33.2071C170.784 33.1959 170.997 33.39 171.009 33.6415L171.137 36.5064C171.148 36.7579 170.954 36.9706 170.702 36.9818Z" fill="white"/>
<path opacity="0.81" d="M195.259 49.3288L141.688 51.7303C141.436 51.7415 141.223 51.5475 141.212 51.296L141.084 48.431C141.072 48.1795 141.267 47.9669 141.518 47.9557L195.09 45.5542C195.341 45.543 195.554 45.737 195.565 45.9885L195.694 48.8534C195.705 49.1049 195.511 49.3176 195.259 49.3288Z" fill="white"/>
<path opacity="0.81" d="M196.204 63.119L142.633 65.5205C142.381 65.5316 142.168 65.3376 142.157 65.0861L142.029 62.2212C142.017 61.9697 142.211 61.757 142.463 61.7458L196.035 59.3443C196.286 59.3331 196.499 59.5272 196.51 59.7787L196.639 62.6436C196.65 62.8951 196.456 63.1078 196.204 63.119Z" fill="white"/>
<path opacity="0.81" d="M197.074 76.5462L143.502 78.9477C143.251 78.9589 143.038 78.7649 143.027 78.5134L142.898 75.6484C142.887 75.397 143.081 75.1843 143.333 75.1731L196.904 72.7716C197.156 72.7604 197.369 72.9544 197.38 73.2059L197.508 76.0708C197.52 76.3223 197.325 76.535 197.074 76.5462Z" fill="white"/>
<path d="M196.499 69.7062L142.927 72.1077C142.676 72.1189 142.463 71.9249 142.452 71.6734L142.323 68.8085C142.312 68.5577 142.506 68.3443 142.758 68.3331L196.329 65.9316C196.581 65.9204 196.794 66.1144 196.805 66.3659L196.933 69.2309C196.945 69.4824 196.75 69.695 196.499 69.7062Z" fill="white"/>
<path d="M181.397 168.097C181.397 168.097 191.677 190.491 197.071 199.767C197.071 199.767 198.142 205.603 197.071 207.438L196.158 207.844L200.418 207.717C200.418 207.717 200.797 199.866 200.501 199.428C200.205 198.989 199.614 199.018 199.614 199.018C199.614 199.018 197.787 184.552 192.496 181.464L187.369 163.812L181.397 168.097V168.097Z" fill="#AD6B1A"/>
<path d="M194.339 208.942C194.333 209.045 197.666 208.998 199.477 208.965C200.145 208.953 200.716 208.482 200.858 207.829L202.225 200.649C202.355 199.967 201.922 199.303 201.244 199.149L200.481 198.974C200.481 198.974 199.393 200.467 199.735 201.873C200.078 203.278 200.383 206.919 199.517 207.344C198.651 207.768 196.16 207.842 196.16 207.842C196.16 207.842 194.397 208.017 194.34 208.941L194.339 208.942Z" fill="url(#paint2_linear_199_1983)"/>
<path d="M171.653 209.073C171.316 209.265 171.456 209.78 171.843 209.776C174.873 209.745 181.663 209.649 182.267 209.399C183.045 209.075 181.983 206.277 180.864 205.33L174.688 207.345L171.653 209.073H171.653Z" fill="url(#paint3_linear_199_1983)"/>
<path d="M169.736 166.669C169.736 166.669 176.379 198.79 178.259 205.056L173.813 207.844C173.813 207.844 176.041 207.465 177.693 207.345C179.345 207.226 180.865 205.33 180.865 205.33L180.332 204.481C180.332 204.481 178.667 172.535 179.072 168.907L169.736 166.667V166.669Z" fill="#AD6B1A"/>
<path d="M153.244 91.7455C153.244 91.7455 152.328 108.454 167.549 116.993L163.884 125.346C163.884 125.346 150.104 117.016 150.614 94.2947C150.629 93.6425 150.393 93.0097 149.967 92.5156L147.039 89.1201C145.923 87.8261 145.506 86.0709 145.921 84.4141L146.306 82.8738C146.435 82.3582 147.023 82.1104 147.483 82.3768L147.789 82.5544C148.764 83.1201 149.536 83.9783 149.997 85.0074L151.435 88.2201C151.972 89.4201 153.211 90.1492 154.522 90.0358L155.411 89.9589L153.246 91.7455H153.244Z" fill="#AD6B1A"/>
<path d="M167.02 115.742C169.566 116.447 178.193 118.715 183.579 118.623L180.272 137.273L180.535 140.315L169.753 140.266C169.753 140.266 166.718 133.221 164.324 129.709C163.632 128.695 164.147 127.486 164.539 126.322L164 125.964C163.452 125.599 163.215 124.914 163.419 124.289L166.045 116.26C166.181 115.856 166.608 115.627 167.019 115.742H167.02Z" fill="#FEF703"/>
<path d="M168.889 138.674L169.101 140.517C169.101 140.517 166.055 149.636 170.624 170.935C170.624 170.935 180.522 173.738 188.657 167.032C188.657 167.032 186.363 146.929 185.735 145.992C182.614 141.328 180.533 140.314 180.533 140.314L180.439 138.3C180.439 138.3 171.738 139.873 168.888 138.673L168.889 138.674Z" fill="#001D0C"/>
<path d="M173.11 117.244C173.072 117.194 175.361 110.338 175.361 110.338L178.639 110.635L179.919 118.413C179.919 118.413 174.782 119.449 173.11 117.243L173.11 117.244Z" fill="url(#paint4_linear_199_1983)"/>
<path d="M177.854 99.5262C177.635 99.662 170.848 102.466 172.307 109.508C172.393 109.924 172.67 110.276 173.059 110.449C174.055 110.893 176.199 111.654 178.764 111.393C182.319 111.032 184.648 104.831 184.55 103.028C184.451 101.223 180.021 98.1785 177.854 99.527L177.854 99.5262Z" fill="#AD6B1A"/>
<path d="M179.92 96.7888C179.742 96.812 175.999 98.1157 177.855 100.826C179.711 103.537 180.408 105.133 179.53 106.324C178.73 107.408 176.957 106.79 177.112 109.047C177.143 109.499 176.948 109.937 176.572 110.191C174.903 111.321 170.828 114.798 174.864 119.757C175.192 120.16 175.26 120.717 175.007 121.171C173.825 123.29 171.342 129.499 180.332 132.943C189.216 136.346 192.424 130.542 193.32 128.222C193.514 127.72 194.008 127.413 194.546 127.438C195.522 127.484 196.906 127.322 196.842 126.018C196.803 125.226 196.309 124.516 195.725 123.947C195.147 123.384 195.261 122.398 195.963 121.999C196.493 121.698 196.963 121.228 197.161 120.495C197.699 118.501 196.624 112.539 190.907 111.528C190.43 111.444 189.93 110.997 189.861 110.518C189.86 110.51 189.858 110.504 189.858 110.496C189.781 110.033 189.938 109.559 190.317 109.281C191.23 108.612 192.401 107.264 191.45 105.103C190.606 103.186 188.989 102.54 187.787 102.334C187.082 102.213 186.618 101.546 186.766 100.846C187.172 98.9396 186.819 95.8851 179.922 96.7888H179.92Z" fill="#191900"/>
</g>
<defs>
<linearGradient id="paint0_linear_199_1983" x1="118.242" y1="35.0852" x2="87.306" y2="231.564" gradientUnits="userSpaceOnUse">
<stop stop-color="#FDF53F"/>
<stop offset="1" stop-color="#D93C65"/>
</linearGradient>
<linearGradient id="paint1_linear_199_1983" x1="132.521" y1="56.3929" x2="2.18122" y2="252.009" gradientUnits="userSpaceOnUse">
<stop stop-color="#53D8FF"/>
<stop offset="1" stop-color="#3840F7"/>
</linearGradient>
<linearGradient id="paint2_linear_199_1983" x1="207.814" y1="142.873" x2="198.306" y2="204.703" gradientUnits="userSpaceOnUse">
<stop stop-color="#2B3582"/>
<stop offset="1" stop-color="#150E42"/>
</linearGradient>
<linearGradient id="paint3_linear_199_1983" x1="187.676" y1="139.778" x2="178.168" y2="201.608" gradientUnits="userSpaceOnUse">
<stop stop-color="#2B3582"/>
<stop offset="1" stop-color="#150E42"/>
</linearGradient>
<linearGradient id="paint4_linear_199_1983" x1="173.11" y1="114.497" x2="179.92" y2="114.497" gradientUnits="userSpaceOnUse">
<stop stop-color="#F9B776"/>
<stop offset="1" stop-color="#F47960"/>
</linearGradient>
<clipPath id="clip0_199_1983">
<rect width="212.923" height="208.955" fill="white" transform="translate(0.283569 0.935303)"/>
</clipPath>
</defs>
</svg>
