<svg width="218" height="217" viewBox="0 0 218 217" fill="none" xmlns="http://www.w3.org/2000/svg">
<path d="M214.609 92.1595C208.727 53.6787 184.611 6.40278 136.967 1.45467C136.967 1.45467 100.793 -2.94331 65.1344 3.72194C43.971 7.67764 25.4129 19.4532 13.671 36.3778C1.92826 53.3024 -1.99374 73.9391 2.76669 93.6144C5.8588 106.393 7.9479 119.619 7.37419 132.75C6.37661 155.604 6.95031 176.935 29.1408 190.565C48.9542 202.734 73.8891 213.467 97.6781 215.347C113.844 216.624 131.975 214.557 147.555 210.35C226.962 188.911 220.492 130.64 214.61 92.1595H214.609Z" fill="#FFFDB3"/>
<path d="M74.8675 189.847L18.2927 185.546V26.4257L74.8675 22.2372V189.847Z" fill="#00933C"/>
<path d="M23.7727 84.4493V152.071H22.6656V169.378H74.8674V84.4493H23.7727Z" fill="#D8DEE8"/>
<mask id="mask0_199_2139" style="mask-type:luminance" maskUnits="userSpaceOnUse" x="22" y="29" width="53" height="154">
<path d="M22.6663 178.591V33.3894L74.868 29.883V182.203L22.6663 178.591Z" fill="white"/>
</mask>
<g mask="url(#mask0_199_2139)">
<path d="M91.8016 10.6405C91.8016 10.6405 91.8567 47.2458 100.07 64.0486C108.282 80.8522 111.372 97.212 105.192 106.791C99.0121 116.37 74.8684 101.753 74.8684 101.753C74.8684 101.753 63.4766 109.787 58.3264 126.977C53.1763 144.167 19.701 158.49 12.4905 153.645C5.28077 148.799 8.37056 19.071 8.37056 19.071L91.8016 10.6405Z" fill="white"/>
<path d="M10.9456 163.508C10.9456 163.508 31.2302 172.962 46.5805 164.226C61.9308 155.49 74.8675 139.79 74.8675 139.79C74.8675 139.79 90.4787 149.351 98.8653 148.817C107.251 148.284 113.456 121.39 113.456 121.39C113.456 121.39 127.337 114.495 133.517 100.504C139.698 86.514 158.667 71.2778 169.053 68.0864C179.439 64.895 185.533 70.8533 185.533 70.8533L182.958 192.797L22.6665 201.187L10.9463 163.507L10.9456 163.508Z" fill="white"/>
</g>
<path d="M113.455 180.704H179.437L179.437 31.6014H113.455L113.455 180.704Z" fill="#00933C"/>
<path d="M174.087 173.892V38.3099H113.455L95.26 89.5075L113.455 173.892H174.087Z" fill="#D8DEE8"/>
<mask id="mask1_199_2139" style="mask-type:luminance" maskUnits="userSpaceOnUse" x="113" y="38" width="62" height="136">
<path d="M174.087 173.892V38.3086L113.454 38.3086V173.892H174.087Z" fill="white"/>
</mask>
<g mask="url(#mask1_199_2139)">
<path d="M10.9453 163.508C10.9453 163.508 31.23 172.962 46.5803 164.226C61.9306 155.489 74.8673 139.79 74.8673 139.79C74.8673 139.79 90.4784 149.351 98.8651 148.817C107.251 148.283 113.455 121.39 113.455 121.39C113.455 121.39 127.337 114.495 133.517 100.504C139.698 86.5138 158.667 71.2776 169.053 68.0862C179.438 64.8948 185.533 70.8531 185.533 70.8531L182.958 192.797L22.6663 201.186L10.9461 163.507L10.9453 163.508Z" fill="white"/>
<path d="M102.298 15.1934C102.298 15.1934 96.8287 40.2746 102.298 46.9228C107.767 53.571 111.934 72.5984 113.456 77.7552C114.978 82.9113 126.822 94.198 133.002 83.9223C139.183 73.6467 148.453 66.1512 153.088 62.6921C157.722 59.2338 187.078 55.6815 188.623 53.0822C190.168 50.4828 191.198 20.9881 191.198 20.9881L102.298 15.1934Z" fill="white"/>
</g>
<path d="M113.454 180.704L74.8668 189.847V22.2372L113.454 31.6019V38.3098L106.231 52.6397L104.024 171.058L113.454 173.892V180.704Z" fill="#33A963"/>
<path d="M113.454 151.179V40.0509L99.8669 35.4023L93.1276 33.9141L91.9646 33.7775V101.577H74.8668V151.179H113.454Z" fill="#97A6B7"/>
<mask id="mask2_199_2139" style="mask-type:luminance" maskUnits="userSpaceOnUse" x="74" y="29" width="40" height="154">
<path d="M74.8668 182.203V29.8828L113.454 38.3102V173.903L74.8668 182.203Z" fill="white"/>
</mask>
<g mask="url(#mask2_199_2139)">
<path d="M91.7996 10.6405C91.7996 10.6405 91.8547 47.2458 100.067 64.0486C108.28 80.8522 111.37 97.212 105.19 106.791C99.0101 116.37 74.8663 101.753 74.8663 101.753C74.8663 101.753 63.4745 109.787 58.3243 126.977C53.1742 144.167 19.699 158.49 12.4884 153.645C5.2787 148.799 8.36848 19.071 8.36848 19.071L91.7996 10.6405Z" fill="#D8DEE8"/>
<path d="M10.9435 163.508C10.9435 163.508 31.2281 172.962 46.5784 164.226C61.9287 155.49 74.8654 139.79 74.8654 139.79C74.8654 139.79 90.4766 149.351 98.8633 148.817C107.249 148.284 113.454 121.39 113.454 121.39C113.454 121.39 127.335 114.495 133.515 100.504C139.696 86.514 158.665 71.2778 169.051 68.0864C179.437 64.895 185.531 70.8533 185.531 70.8533L182.956 192.797L22.6645 201.187L10.9443 163.507L10.9435 163.508Z" fill="#D8DEE8"/>
<path d="M102.296 15.1936C102.296 15.1936 96.8269 40.2748 102.296 46.923C107.765 53.5712 111.933 72.5986 113.454 77.7554C114.976 82.9115 126.82 94.1982 133.001 83.9225C139.181 73.6469 148.451 66.1514 153.086 62.6923C157.72 59.2339 187.076 55.6817 188.621 53.0824C190.166 50.483 191.196 20.9883 191.196 20.9883L102.296 15.1936Z" fill="#D8DEE8"/>
</g>
<path opacity="0.53" d="M144.287 38.3099H143.257V180.704H144.287V38.3099Z" fill="url(#paint0_linear_199_2139)"/>
<path opacity="0.53" d="M49.281 31.6358H48.2509V180.704H49.281V31.6358Z" fill="url(#paint1_linear_199_2139)"/>
<path opacity="0.53" d="M174.087 85.964H113.394L113.335 85.9493L74.8281 76.8018L22.7087 81.2021L22.6217 80.1756L74.9058 75.7621L74.9857 75.7815L113.515 84.9343H174.087V85.964Z" fill="url(#paint2_linear_199_2139)"/>
<path d="M34.107 112.083C33.7405 112.083 33.3788 111.916 33.1443 111.599C32.7507 111.069 32.8625 110.319 33.3935 109.926C33.3958 109.924 33.8562 109.583 34.6613 108.975C35.1884 108.577 35.9399 108.682 36.3381 109.209C36.7364 109.737 36.6316 110.487 36.1037 110.885C35.2854 111.503 34.8189 111.848 34.8189 111.848C34.6046 112.007 34.3546 112.083 34.107 112.083Z" fill="url(#paint3_linear_199_2139)"/>
<path d="M136.619 116.75C135.909 116.75 135.096 116.648 134.131 116.439C133.485 116.3 133.075 115.663 133.215 115.016C133.355 114.37 133.993 113.96 134.638 114.1C135.793 114.35 136.714 114.416 137.265 114.299C137.901 114.152 138.536 114.541 138.695 115.175C138.856 115.815 138.466 116.465 137.824 116.626C137.814 116.628 137.797 116.632 137.787 116.634C137.438 116.711 137.046 116.749 136.619 116.749V116.75ZM140.531 115.638C140.083 115.638 139.655 115.386 139.449 114.955C139.165 114.358 139.419 113.644 140.016 113.36C140.876 112.951 141.708 112.436 142.488 111.829C143.009 111.423 143.762 111.516 144.168 112.037C144.574 112.559 144.481 113.311 143.959 113.717C143.042 114.43 142.061 115.038 141.044 115.521C140.878 115.601 140.703 115.638 140.531 115.638H140.531ZM131.327 115.597C131.2 115.597 131.071 115.576 130.944 115.534C130.014 115.22 128.99 114.839 127.899 114.402C127.286 114.157 126.988 113.46 127.234 112.847C127.48 112.233 128.176 111.936 128.79 112.181C129.839 112.602 130.821 112.966 131.709 113.267C132.336 113.478 132.672 114.157 132.461 114.783C132.292 115.282 131.826 115.597 131.326 115.597L131.327 115.597ZM125.413 113.251C125.252 113.251 125.088 113.218 124.93 113.149C124.003 112.74 123.021 112.29 122.01 111.815C121.412 111.533 121.155 110.82 121.437 110.223C121.719 109.624 122.431 109.368 123.03 109.65C124.024 110.118 124.988 110.559 125.897 110.96C126.502 111.227 126.775 111.933 126.508 112.538C126.31 112.985 125.872 113.251 125.412 113.251H125.413ZM145.522 111.788C145.243 111.788 144.961 111.69 144.734 111.491C144.237 111.056 144.187 110.3 144.623 109.803C145.259 109.076 145.855 108.271 146.396 107.407C146.746 106.847 147.486 106.677 148.045 107.027C148.606 107.377 148.776 108.116 148.426 108.676C147.818 109.648 147.144 110.558 146.424 111.379C146.188 111.649 145.856 111.788 145.523 111.788H145.522ZM119.654 110.547C119.476 110.547 119.296 110.507 119.125 110.423C118.203 109.968 117.242 109.485 116.267 108.986C115.679 108.685 115.446 107.964 115.747 107.375C116.048 106.787 116.77 106.554 117.359 106.855C118.323 107.348 119.274 107.826 120.185 108.276C120.779 108.569 121.022 109.287 120.729 109.88C120.52 110.302 120.095 110.547 119.654 110.547ZM37.9072 109.205C37.5485 109.205 37.193 109.045 36.957 108.738C36.5541 108.214 36.6519 107.463 37.1759 107.06C37.9297 106.48 38.772 105.828 39.6803 105.118C40.2013 104.711 40.9535 104.803 41.3611 105.323C41.7687 105.844 41.6763 106.596 41.1554 107.003C40.2416 107.717 39.3939 108.373 38.6346 108.957C38.4173 109.125 38.1603 109.205 37.9057 109.205H37.9072ZM113.99 107.652C113.802 107.652 113.611 107.608 113.432 107.514C112.494 107.019 111.553 106.517 110.615 106.01C110.033 105.696 109.817 104.969 110.131 104.388C110.446 103.807 111.172 103.591 111.754 103.905C112.685 104.408 113.618 104.907 114.549 105.397C115.133 105.705 115.357 106.429 115.049 107.013C114.835 107.42 114.419 107.652 113.99 107.652ZM42.9161 105.291C42.5636 105.291 42.215 105.136 41.9783 104.839C41.5668 104.322 41.6522 103.569 42.17 103.158C42.9681 102.523 43.7956 101.86 44.6403 101.176C45.1534 100.76 45.9073 100.838 46.3241 101.352C46.7403 101.866 46.6611 102.619 46.1479 103.035C45.2971 103.724 44.4641 104.391 43.6613 105.031C43.4409 105.206 43.1777 105.291 42.9168 105.291H42.9161ZM108.394 104.63C108.198 104.63 107.999 104.582 107.815 104.48C106.878 103.962 105.947 103.443 105.028 102.926C104.452 102.601 104.248 101.872 104.573 101.296C104.897 100.72 105.628 100.516 106.203 100.841C107.116 101.354 108.041 101.87 108.973 102.386C109.551 102.705 109.762 103.433 109.442 104.012C109.224 104.407 108.815 104.63 108.393 104.63H108.394ZM102.849 101.51C102.647 101.51 102.442 101.458 102.255 101.351C101.313 100.81 100.391 100.277 99.4932 99.7544C98.9218 99.4216 98.7285 98.6891 99.0616 98.118C99.3946 97.5469 100.128 97.3537 100.699 97.6866C101.592 98.2065 102.509 98.7372 103.446 99.2741C104.02 99.6031 104.218 100.334 103.889 100.907C103.668 101.293 103.264 101.509 102.849 101.509V101.51ZM47.8535 101.29C47.5088 101.29 47.1672 101.143 46.9305 100.856C46.5089 100.347 46.5803 99.593 47.0896 99.1717C47.921 98.4835 48.7377 97.8014 49.5148 97.1419C50.0187 96.7143 50.774 96.7764 51.2026 97.2808C51.6303 97.7851 51.5682 98.5401 51.0636 98.9669C50.2787 99.6318 49.4551 100.322 48.6159 101.015C48.393 101.2 48.1221 101.29 47.8535 101.29ZM97.3513 98.3058C97.1441 98.3058 96.9337 98.2522 96.7419 98.1382C95.7847 97.571 94.8686 97.0232 94.0023 96.501C93.4363 96.1595 93.2539 95.424 93.5955 94.8583C93.937 94.2926 94.673 94.1111 95.2389 94.4517C96.0999 94.9708 97.0113 95.5155 97.9631 96.0796C98.5321 96.4164 98.72 97.1504 98.3823 97.7192C98.1587 98.0963 97.7605 98.3058 97.3513 98.3058ZM52.6993 97.1799C52.3655 97.1799 52.034 97.041 51.7972 96.7702C51.3625 96.2721 51.4137 95.5163 51.9114 95.0818C52.7374 94.3609 53.5308 93.6564 54.2706 92.986C54.7605 92.5421 55.5174 92.5794 55.9615 93.069C56.4055 93.5586 56.3683 94.3151 55.8784 94.759C55.1285 95.4387 54.3234 96.1533 53.4865 96.8843C53.2598 97.0821 52.9788 97.1799 52.6993 97.1799ZM91.9023 95.0189C91.688 95.0189 91.4714 94.9615 91.2758 94.8412C90.2821 94.2298 89.3684 93.6603 88.561 93.1482C88.0028 92.7943 87.8374 92.0549 88.1914 91.497C88.5462 90.9391 89.2853 90.7738 89.8435 91.1276C90.6415 91.6343 91.546 92.1976 92.5303 92.8036C93.0939 93.1497 93.2686 93.8868 92.9224 94.4502C92.6965 94.8172 92.3036 95.0197 91.9015 95.0197L91.9023 95.0189ZM57.4047 92.9092C57.0887 92.9092 56.7727 92.785 56.5375 92.5375C56.0818 92.0587 56.0996 91.3014 56.5786 90.846C57.3868 90.0762 58.1383 89.3368 58.8121 88.647C59.274 88.1744 60.0325 88.1659 60.5053 88.6268C60.9781 89.0885 60.9874 89.8466 60.5247 90.3191C59.8307 91.0291 59.059 91.7895 58.2299 92.5786C57.9978 92.799 57.7012 92.9092 57.4047 92.9092ZM86.5386 91.5909C86.3073 91.5909 86.0744 91.5241 85.8687 91.3852C85.3594 91.0407 84.8393 90.6838 84.3106 90.3214C83.9581 90.0801 83.6026 89.8357 83.2431 89.5905C82.6974 89.2181 82.5561 88.4732 82.9287 87.9277C83.3014 87.3814 84.0459 87.241 84.5924 87.6134C84.9534 87.8594 85.3113 88.1054 85.6653 88.3482C86.1901 88.7083 86.7056 89.0621 87.2117 89.4043C87.759 89.7744 87.9026 90.5185 87.5316 91.0655C87.3002 91.407 86.9229 91.5916 86.5394 91.5916L86.5386 91.5909ZM61.8266 88.3475C61.5495 88.3475 61.2708 88.252 61.0441 88.0557C60.5441 87.6235 60.489 86.8678 60.9214 86.3681C61.2645 85.9708 61.5821 85.5875 61.8631 85.2282C62.2458 84.7394 62.6511 84.2886 63.0664 83.8866C63.5423 83.4273 64.3 83.4412 64.7588 83.9161C65.2184 84.3918 65.2052 85.1491 64.7293 85.6084C64.3931 85.9335 64.0624 86.3021 63.748 86.7033C63.4429 87.0928 63.1006 87.5071 62.7318 87.9339C62.495 88.2078 62.1612 88.3475 61.8258 88.3475H61.8266ZM81.272 88.0379C81.05 88.0379 80.8257 87.9766 80.6254 87.8478C79.6573 87.2247 78.7886 86.6971 77.9696 86.2346C77.3935 85.9095 77.1909 85.1793 77.5162 84.6044C77.8422 84.0294 78.572 83.8261 79.1472 84.1512C80.0059 84.6362 80.9134 85.1871 81.9211 85.835C82.4769 86.1927 82.6376 86.9329 82.2797 87.4885C82.0507 87.8439 81.6656 88.0379 81.272 88.0379ZM75.726 84.9543C75.5645 84.9543 75.4007 84.9217 75.2431 84.8519C74.2541 84.4158 73.3108 84.0822 72.4398 83.8602C71.7993 83.6973 71.4119 83.0455 71.5757 82.4054C71.7387 81.7652 72.3893 81.378 73.0313 81.541C74.0305 81.7955 75.1002 82.1726 76.2104 82.6622C76.8152 82.9291 77.0892 83.6352 76.8221 84.2397C76.625 84.6874 76.1863 84.9535 75.726 84.9535V84.9543ZM66.511 84.1706C66.0483 84.1706 65.6073 83.9006 65.4117 83.449C65.1493 82.8422 65.428 82.1385 66.0351 81.8754C67.1281 81.4029 68.3151 81.1476 69.565 81.1166C70.228 81.1003 70.7753 81.6225 70.7916 82.2828C70.8079 82.9431 70.2855 83.4925 69.6248 83.5087C68.6699 83.5328 67.8074 83.7167 66.9861 84.0721C66.8316 84.1388 66.6701 84.1706 66.511 84.1706Z" fill="#66BE8A"/>
<path d="M148.839 106.55C148.677 106.55 148.513 106.517 148.355 106.447C147.75 106.179 147.478 105.472 147.746 104.868C148.109 104.051 148.276 103.519 148.277 103.514C148.474 102.884 149.144 102.531 149.775 102.726C150.406 102.922 150.759 103.59 150.564 104.221C150.557 104.247 150.359 104.879 149.934 105.838C149.736 106.284 149.298 106.549 148.839 106.549L148.839 106.55Z" fill="url(#paint4_linear_199_2139)"/>
<path d="M71.3297 39.8366C71.3297 54.4575 50.8362 81.1371 41.5615 92.4626C39.2534 95.2808 34.9394 95.2808 32.6314 92.4626C23.3574 81.1379 2.86389 54.4575 2.86389 39.8366C2.86389 20.9396 18.1909 5.62112 37.0968 5.62112C56.0027 5.62112 71.3297 20.9403 71.3297 39.8366Z" fill="#3F84AF"/>
<path d="M50.5971 53.3303C58.0531 45.8782 58.0531 33.7958 50.5971 26.3436C43.1411 18.8914 31.0526 18.8914 23.5967 26.3436C16.1407 33.7958 16.1407 45.8782 23.5967 53.3303C31.0526 60.7825 43.1411 60.7825 50.5971 53.3303Z" fill="white"/>
<g style="mix-blend-mode:multiply" opacity="0.3">
<path d="M36.945 78.4154C39.1172 64.1197 48.562 59.544 46.941 46.0451C45.0716 30.4776 31.2802 26.331 30.9479 12.476C30.8944 10.2452 31.1979 8.0943 31.7708 6.03497C15.3934 8.59167 2.86353 22.7516 2.86353 39.8369C2.86353 54.4578 23.357 81.1374 32.6318 92.4629C33.9903 94.1218 36.0437 94.8031 37.9745 94.509C36.3147 88.2472 36.2642 82.9003 36.9458 78.4146L36.945 78.4154Z" fill="#326A8C"/>
</g>
<path d="M37.0969 116.104C40.9612 116.104 44.0939 112.973 44.0939 109.11C44.0939 105.248 40.9612 102.117 37.0969 102.117C33.2325 102.117 30.0999 105.248 30.0999 109.11C30.0999 112.973 33.2325 116.104 37.0969 116.104Z" fill="#007630"/>
<path d="M164.999 71.4126C164.999 78.0662 155.673 90.2072 151.453 95.3609C150.402 96.6436 148.439 96.6436 147.389 95.3609C143.169 90.2072 133.843 78.0662 133.843 71.4126C133.843 62.8137 140.817 55.8427 149.42 55.8427C158.024 55.8427 164.998 62.8137 164.998 71.4126H164.999Z" fill="#3970AE"/>
<path d="M158.018 72.613C158.683 67.8636 155.371 63.4744 150.619 62.8094C145.867 62.1445 141.475 65.4556 140.81 70.205C140.145 74.9544 143.458 79.3436 148.21 80.0086C152.961 80.6735 157.353 77.3624 158.018 72.613Z" fill="white"/>
<g style="mix-blend-mode:multiply" opacity="0.3">
<path d="M149.352 88.9682C150.341 82.4627 154.639 80.3801 153.901 74.2379C153.05 67.1536 146.774 65.2673 146.623 58.9621C146.599 57.9472 146.737 56.968 146.997 56.0306C139.545 57.1945 133.843 63.6379 133.843 71.4127C133.843 78.0663 143.169 90.2073 147.389 95.3611C148.007 96.116 148.942 96.4256 149.82 96.2922C149.065 93.443 149.043 91.0096 149.352 88.9682Z" fill="#326A8C"/>
</g>
<path d="M150.349 105.967C152.032 105.457 152.983 103.681 152.473 101.999C151.963 100.317 150.186 99.3661 148.503 99.8756C146.82 100.385 145.869 102.161 146.379 103.843C146.889 105.525 148.666 106.476 150.349 105.967Z" fill="#007630"/>
<path d="M123.141 203.457L98.9246 202.467L105.629 186.767L121.231 187.687L125.405 194.511L123.141 203.457Z" fill="url(#paint5_linear_199_2139)"/>
<path d="M145.857 178.501C146.019 178.501 146.178 178.511 146.336 178.528L148.852 178.501L148.838 179.486C151.275 181.183 152.968 184.893 152.968 189.2C152.968 193.507 151.14 197.509 148.546 199.105L148.534 199.899H145.857C141.929 199.899 138.745 195.109 138.745 189.2C138.745 183.291 141.929 178.5 145.857 178.5L145.857 178.501Z" fill="#264F69"/>
<path d="M148.853 199.9C152.781 199.9 155.965 195.109 155.965 189.2C155.965 183.291 152.781 178.501 148.853 178.501C144.926 178.501 141.742 183.291 141.742 189.2C141.742 195.109 144.926 199.9 148.853 199.9Z" fill="#326A8C"/>
<path d="M76.3717 186.626C76.5697 186.626 76.7646 186.638 76.9586 186.656L80.0414 186.626L80.0236 187.73C83.0101 189.631 85.0837 193.787 85.0837 198.612C85.0837 203.438 82.844 207.922 79.6665 209.71L79.6517 210.599H76.3717C71.5608 210.599 67.6598 205.232 67.6598 198.612C67.6598 191.993 71.5601 186.625 76.3717 186.625V186.626Z" fill="#264F69"/>
<path d="M80.0417 210.6C84.8531 210.6 88.7536 205.233 88.7536 198.612C88.7536 191.992 84.8531 186.625 80.0417 186.625C75.2302 186.625 71.3297 191.992 71.3297 198.612C71.3297 205.233 75.2302 210.6 80.0417 210.6Z" fill="#326A8C"/>
<path d="M109.499 192.191C109.694 192.191 109.886 192.203 110.077 192.222L113.112 192.191L113.094 193.323C116.035 195.271 118.075 199.533 118.075 204.48C118.075 209.427 115.87 214.024 112.742 215.857L112.728 216.769H109.499C104.763 216.769 100.923 211.266 100.923 204.48C100.923 197.694 104.763 192.191 109.499 192.191Z" fill="#264F69"/>
<path d="M113.112 216.769C117.848 216.769 121.688 211.267 121.688 204.48C121.688 197.693 117.848 192.191 113.112 192.191C108.375 192.191 104.536 197.693 104.536 204.48C104.536 211.267 108.375 216.769 113.112 216.769Z" fill="#326A8C"/>
<path d="M114.318 211.384C116.979 211.384 119.136 208.293 119.136 204.48C119.136 200.667 116.979 197.576 114.318 197.576C111.657 197.576 109.5 200.667 109.5 204.48C109.5 208.293 111.657 211.384 114.318 211.384Z" fill="#D8DEE8"/>
<path d="M113.589 210.89C115.847 210.89 117.678 208.02 117.678 204.48C117.678 200.94 115.847 198.07 113.589 198.07C111.331 198.07 109.5 200.94 109.5 204.48C109.5 208.02 111.331 210.89 113.589 210.89Z" fill="url(#paint6_linear_199_2139)"/>
<path d="M195.029 178.501V191.293C195.029 194.632 192.104 197.218 188.788 196.811L157.669 192.991V178.501H195.029Z" fill="#193546"/>
<path d="M181.018 176.724L172.475 189.995C171.254 191.892 169.249 193.146 167.009 193.415L138.747 196.809L136.584 182.524L181.018 176.724Z" fill="#193546"/>
<path d="M179.049 183.189C179.21 183.189 179.369 183.2 179.528 183.216L182.044 183.189L182.029 184.174C184.467 185.871 186.159 189.581 186.159 193.888C186.159 198.196 184.331 202.198 181.737 203.794L181.725 204.588H179.048C175.12 204.588 171.937 199.797 171.937 193.888C171.937 187.98 175.12 183.188 179.048 183.188L179.049 183.189Z" fill="#264F69"/>
<path d="M182.045 204.587C185.972 204.587 189.156 199.797 189.156 193.888C189.156 187.979 185.972 183.189 182.045 183.189C178.117 183.189 174.934 187.979 174.934 193.888C174.934 199.797 178.117 204.587 182.045 204.587Z" fill="#326A8C"/>
<path d="M183.044 199.899C185.25 199.899 187.039 197.208 187.039 193.888C187.039 190.568 185.25 187.877 183.044 187.877C180.837 187.877 179.049 190.568 179.049 193.888C179.049 197.208 180.837 199.899 183.044 199.899Z" fill="#D8DEE8"/>
<path d="M182.44 199.468C184.312 199.468 185.83 196.97 185.83 193.888C185.83 190.806 184.312 188.307 182.44 188.307C180.567 188.307 179.049 190.806 179.049 193.888C179.049 196.97 180.567 199.468 182.44 199.468Z" fill="url(#paint7_linear_199_2139)"/>
<path d="M148.188 186.767L206.239 178.731C207.195 178.599 207.906 177.783 207.906 176.818V125.698C207.906 124.655 207.077 123.8 206.034 123.768L148.188 121.987V186.767Z" fill="#00933C"/>
<path d="M102.621 183.189L148.188 186.767V121.987L104.884 124.272C103.616 124.339 102.621 125.387 102.621 126.657V183.189Z" fill="#33A963"/>
<g style="mix-blend-mode:multiply" opacity="0.3">
<path d="M169.132 146.789C177.57 136.158 194.344 144.003 202.812 132.079C204.721 129.391 206.049 126.65 206.972 124.053C207.53 124.392 207.906 124.999 207.906 125.698V176.818C207.906 177.782 207.194 178.598 206.239 178.731L153.705 186.003C157.022 182.38 160.352 177.751 162.763 171.966C168.057 159.262 163.622 153.73 169.131 146.79L169.132 146.789Z" fill="#00933C"/>
</g>
<path d="M139.38 148.793C140.952 155.846 144.619 176.191 140.526 198.056C140.222 199.684 138.915 200.939 137.279 201.2L123.14 203.456C123.14 203.456 122.999 190.077 116.206 189.2C109.413 188.323 103.045 194.688 102.621 205.72C102.621 205.72 87.9039 207.7 65.6862 202.608C65.6862 202.608 62.7145 201.972 61.4413 198.612L62.4443 183.225C62.5266 181.962 63.1127 180.785 64.0707 179.957L77.1487 168.663C77.1487 168.663 89.0358 151.831 92.9982 148.579C92.9982 148.579 95.1207 145.184 112.244 144.759C124.037 144.467 132.156 145.248 136.07 145.763C137.703 145.978 139.023 147.186 139.381 148.793H139.38Z" fill="url(#paint8_linear_199_2139)"/>
<path style="mix-blend-mode:multiply" opacity="0.6" d="M63.1969 180.964L63.8467 181.675C63.5633 189.596 61.8461 192.395 76.3712 193.889C90.8955 195.382 90.4506 183.189 90.4506 183.189L109.499 174.885L125.404 149.851C128.561 147.309 134.077 146.614 137.817 146.453C138.592 147.002 139.163 147.822 139.379 148.792C140.951 155.845 144.619 176.19 140.526 198.055C140.221 199.682 138.914 200.938 137.279 201.199L123.139 203.455C123.139 203.455 122.998 190.076 116.205 189.198C109.412 188.321 103.045 194.686 102.62 205.718C102.62 205.718 87.9035 207.698 65.6858 202.606C65.6858 202.606 62.714 201.97 61.4401 198.61L62.4439 183.223C62.4966 182.41 62.7614 181.635 63.1961 180.963L63.1969 180.964Z" fill="url(#paint9_linear_199_2139)"/>
<path d="M109.694 171.234C109.179 172.079 108.216 172.545 107.232 172.425L77.0713 168.73L77.1489 168.663C77.1489 168.663 87.0137 154.695 91.7656 149.75L119.578 151.422C120.535 151.479 121.087 152.535 120.588 153.354L109.694 171.234Z" fill="#132835"/>
<g style="mix-blend-mode:overlay" opacity="0.3">
<path d="M91.7344 161.846C99.9464 158.619 106.77 162.443 112.418 157.931C114.591 156.195 115.885 153.784 116.649 151.244L119.577 151.42C120.535 151.478 121.087 152.534 120.588 153.353L109.694 171.232C109.178 172.078 108.216 172.544 107.232 172.423L82.2042 169.357C85.4912 165.088 88.8744 162.969 91.7344 161.845V161.846Z" fill="white"/>
</g>
<path d="M65.079 183.005C65.1101 182.73 65.3407 182.523 65.617 182.526C73.1327 182.591 82.5837 184.171 85.7123 184.733C86.3015 184.839 86.6904 185.414 86.5538 185.997C85.9421 188.607 84.9274 190.372 84.1806 191.396C83.6729 192.093 82.8911 192.532 82.0317 192.599C79.667 192.785 74.4214 193.101 71.8781 192.495C69.6159 191.957 67.4507 190.885 66.2878 190.247C65.6108 189.876 65.1318 189.218 65.0138 188.455C64.7282 186.612 64.961 184.056 65.0798 183.005H65.079Z" fill="#193546"/>
<path d="M101.855 183.73C102.067 183.301 101.864 182.785 101.415 182.619C100.751 182.374 99.8416 182.09 99.3129 182.152C98.6196 182.234 92.7607 183.755 90.0808 184.456C89.2533 184.673 88.6819 185.44 88.7378 186.293C88.8573 188.116 89.5467 191.004 92.6792 191.329C97.0282 191.779 99.7764 187.945 101.855 183.731L101.855 183.73Z" fill="#FEF703"/>
<path d="M73.682 194.51C85.0831 196.102 87.3958 192.191 87.3958 192.191C90.0943 192.592 93.9293 192.064 96.1023 191.685C96.9306 191.541 97.7341 191.934 98.1976 192.636C98.5446 193.16 99.175 193.691 100.321 193.888C102.192 194.21 105.378 193.498 106.938 193.097C104.667 196.213 103.078 200.251 102.868 205.702C102.868 205.702 87.9035 207.699 65.6858 202.607C65.6858 202.607 62.714 201.971 61.4401 198.611L62.0945 188.576C63.259 190.357 66.3038 193.48 73.6812 194.509L73.682 194.51Z" fill="#2C5C7A"/>
<path style="mix-blend-mode:multiply" opacity="0.6" d="M92.2251 196.49C93.4867 196.368 94.5627 197.377 94.5347 198.644C94.4749 201.351 94.7521 204.184 94.9958 206.097C88.5407 206.112 78.3312 205.506 65.6864 202.608C65.6864 202.608 62.7146 201.972 61.4407 198.612L61.8219 192.764C70.9313 197.926 86.2653 197.067 92.2244 196.49H92.2251Z" fill="url(#paint10_linear_199_2139)"/>
<path d="M134.517 152.883L130.421 153.874C129.082 154.198 127.91 155.005 127.131 156.141L116.991 170.925C116.298 171.934 117.192 173.271 118.39 173.018L135.96 169.303C136.668 169.153 137.185 168.547 137.216 167.825C137.326 165.291 137.444 159.286 136.451 154.136C136.278 153.243 135.402 152.669 134.517 152.883Z" fill="#0D1A23"/>
<defs>
<linearGradient id="paint0_linear_199_2139" x1="143.257" y1="109.507" x2="144.286" y2="109.507" gradientUnits="userSpaceOnUse">
<stop stop-color="#311944"/>
<stop offset="1" stop-color="#A03976"/>
</linearGradient>
<linearGradient id="paint1_linear_199_2139" x1="48.2509" y1="106.169" x2="49.281" y2="106.169" gradientUnits="userSpaceOnUse">
<stop stop-color="#311944"/>
<stop offset="1" stop-color="#A03976"/>
</linearGradient>
<linearGradient id="paint2_linear_199_2139" x1="22.6217" y1="80.863" x2="174.087" y2="80.863" gradientUnits="userSpaceOnUse">
<stop stop-color="#311944"/>
<stop offset="1" stop-color="#A03976"/>
</linearGradient>
<linearGradient id="paint3_linear_199_2139" x1="32.9091" y1="110.409" x2="150.623" y2="110.409" gradientUnits="userSpaceOnUse">
<stop stop-color="#AA80F9"/>
<stop offset="1" stop-color="#6165D7"/>
</linearGradient>
<linearGradient id="paint4_linear_199_2139" x1="32.8863" y1="104.612" x2="150.618" y2="104.612" gradientUnits="userSpaceOnUse">
<stop stop-color="#AA80F9"/>
<stop offset="1" stop-color="#6165D7"/>
</linearGradient>
<linearGradient id="paint5_linear_199_2139" x1="125.405" y1="195.112" x2="98.9238" y2="195.112" gradientUnits="userSpaceOnUse">
<stop stop-color="#444B8C"/>
<stop offset="1" stop-color="#26264F"/>
</linearGradient>
<linearGradient id="paint6_linear_199_2139" x1="107.759" y1="203.85" x2="115.613" y2="204.7" gradientUnits="userSpaceOnUse">
<stop stop-color="#D8DEE8"/>
<stop offset="1" stop-color="#F4F7FA"/>
</linearGradient>
<linearGradient id="paint7_linear_199_2139" x1="175.346" y1="194.842" x2="186.383" y2="193.356" gradientUnits="userSpaceOnUse">
<stop stop-color="#D8DEE8"/>
<stop offset="1" stop-color="#F4F7FA"/>
</linearGradient>
<linearGradient id="paint8_linear_199_2139" x1="142.398" y1="175.397" x2="61.4413" y2="175.397" gradientUnits="userSpaceOnUse">
<stop stop-color="#D8DEE8"/>
<stop offset="1" stop-color="#F4F7FA"/>
</linearGradient>
<linearGradient id="paint9_linear_199_2139" x1="102.444" y1="176.843" x2="139.776" y2="235.982" gradientUnits="userSpaceOnUse">
<stop stop-color="#D8DEE8"/>
<stop offset="1" stop-color="#F4F7FA"/>
</linearGradient>
<linearGradient id="paint10_linear_199_2139" x1="94.9958" y1="199.43" x2="61.4414" y2="199.43" gradientUnits="userSpaceOnUse">
<stop stop-color="#444B8C"/>
<stop offset="1" stop-color="#26264F"/>
</linearGradient>
</defs>
</svg>
