<svg width="212" height="216" viewBox="0 0 212 216" fill="none" xmlns="http://www.w3.org/2000/svg">
<path d="M99.789 5.61257C73.9469 -6.644 12.157 31.5165 1.6558 84.3058C-10.1028 143.42 43.5925 215.131 108.618 215.06C150.797 215.013 190.991 184.771 205.235 143.731C222.661 93.52 199.301 32.7469 173.736 27.1529C158.882 23.9025 148.545 40.4327 130.324 34.723C113.214 29.3619 112.906 11.8342 99.789 5.61332V5.61257Z" fill="#FFFDB3"/>
<path d="M96.481 114.955L96.2033 114.952C96.2177 113.03 96.2086 111.093 96.1761 109.198C95.9347 95.1416 94.3883 81.6168 91.5814 68.9987C89.2035 58.3106 85.8898 48.1224 81.7324 38.7176C78.3891 31.1566 74.4852 24.0577 70.1281 17.6197C67.067 13.0958 63.8145 8.9425 60.4629 5.27468C59.8826 4.64019 59.2509 4.02006 58.6404 3.42111C57.8172 2.61343 56.9653 1.77777 56.2201 0.88691L56.4334 0.708435C57.1703 1.58947 58.0169 2.41983 58.8356 3.22222C59.4491 3.82419 60.0839 4.44659 60.6687 5.08713C64.0294 8.76478 67.2902 12.9287 70.3589 17.4639C74.725 23.9155 78.6373 31.0281 81.9866 38.605C86.1523 48.0264 89.4714 58.232 91.853 68.9382C94.6637 81.5744 96.2116 95.1181 96.4537 109.193C96.4863 111.091 96.4961 113.029 96.481 114.954V114.955Z" fill="#FCFDFE"/>
<path d="M86.3258 50.3919C82.1056 37.0955 90.3016 14.718 90.3848 14.4934L90.6458 14.5902C90.5626 14.8141 82.4 37.1023 86.5914 50.308L86.3266 50.3919H86.3258Z" fill="#FCFDFE"/>
<path d="M94.8068 88.3426C93.0357 79.1738 77.3792 70.1608 77.2211 70.0708L77.3588 69.8296C77.5176 69.9203 93.2846 78.9976 95.0792 88.2897L94.806 88.3426H94.8068Z" fill="#FCFDFE"/>
<path d="M95.3697 93.7117C95.2887 87.4688 98.5019 78.9338 104.417 69.6788C104.553 69.4663 104.66 69.2991 104.675 69.2666L104.78 69.3173H104.943C104.943 69.3536 104.846 69.524 104.651 69.8285C98.7644 79.0381 95.5671 87.5187 95.6473 93.7079L95.3697 93.7117Z" fill="#FCFDFE"/>
<path d="M96.1787 111.438C94.1867 105.073 84.9172 101.424 84.8234 101.388L84.9232 101.129C85.0178 101.165 94.4121 104.865 96.4435 111.356L96.178 111.438H96.1787Z" fill="#FCFDFE"/>
<path d="M96.6409 115.034L96.3799 114.937C98.3054 109.739 101.783 104.929 107.009 100.23L107.195 100.437C102.003 105.105 98.5505 109.879 96.6409 115.034Z" fill="#FCFDFE"/>
<path d="M72.64 21.4678C69.8907 14.2282 68.6824 5.99714 68.2852 3.29203C68.2156 2.81635 68.1604 2.44049 68.1415 2.38301L68.4055 2.29529C68.4312 2.37167 68.4691 2.62804 68.5606 3.25119C68.9563 5.94874 70.1615 14.1571 72.9003 21.368L72.64 21.467V21.4678Z" fill="#FCFDFE"/>
<path d="M78.8226 32.5238C74.4542 26.9184 59.7571 25.1443 59.6088 25.1269L59.6413 24.8508C59.6784 24.8554 63.4136 25.2985 67.6443 26.4359C73.3405 27.9673 77.1756 29.9578 79.042 32.3528L78.8226 32.5238Z" fill="#FCFDFE"/>
<path d="M96.3342 90.9693L96.4249 91.4132C88.7276 91.3595 79.4112 87.6508 79.3212 87.6138C79.2546 87.5865 79.4127 87.1071 79.4399 87.0398C79.4672 86.9725 79.5443 86.9407 79.6109 86.9679C79.7009 87.005 88.689 90.6531 96.3349 90.7061C96.4075 90.7061 96.4658 90.7658 96.465 90.8377C96.465 90.9095 96.406 90.9677 96.3342 90.9677V90.9693Z" fill="#D8DEE8"/>
<path d="M72.5098 204.924L14.5634 200.947V53.8527L72.5098 49.9814V204.924Z" fill="#00933C"/>
<path opacity="0.61" d="M19.0416 194.517V60.2897L72.5092 57.0476V197.856L19.0416 194.517Z" fill="white"/>
<mask id="mask0_199_2046" style="mask-type:luminance" maskUnits="userSpaceOnUse" x="19" y="57" width="54" height="141">
<path d="M19.0424 194.518V60.2907L72.5099 57.0486V197.857L19.0424 194.518Z" fill="white"/>
</mask>
<g mask="url(#mask0_199_2046)">
<path d="M231.145 91.907L173.646 93.4301C173.455 64.9504 173.297 24.2565 173.608 20.4798C173.592 20.6719 173.486 21.6891 172.934 22.8363L165.316 16.8922C164.499 18.6043 164.474 20.0359 164.408 23.8625C164.37 26.0337 164.344 29.1502 164.33 33.1259C164.306 39.7786 164.315 48.961 164.356 60.4182C164.427 79.9099 164.569 99.5134 164.57 99.7093L164.614 105.632L184.339 105.3V147.965L147.138 147.327L124.912 107.205L94.3818 107.695L135.388 40.7406L128.902 33.5925L83.8216 107.865L64.4232 108.176C64.4504 101.44 64.495 89.4659 64.5215 77.5405C64.545 67.0074 64.5503 58.5745 64.5367 52.4768C64.5094 40.3163 64.4602 40.1779 64.1848 39.4073L60.5609 42.2909C60.4164 41.884 60.3846 41.5392 60.3793 41.4741C60.5692 44.0045 60.4845 80.9353 60.371 108.241L40.1138 108.566C36.4346 88.935 27.8332 43.0645 27.5441 41.797L20.797 45.6592L20.7804 45.5836C21.1481 47.357 28.7509 88.1416 33.829 115.431L34.5598 119.359L77.0072 119.088L50.6362 162.536L-1.11853 160.87V171.23L54.0529 173.539L87.4426 119.022L120.685 118.81L136.239 147.139L95.1437 146.434V226.906L99.4486 227.277V152.536L139.695 153.433L180.283 227.356L187.755 220.648L150.656 153.678L189.327 154.541V105.216L231.143 104.512V91.9055L231.145 91.907Z" fill="white" style="mix-blend-mode:hard-light"/>
</g>
<path d="M112.032 196.47H179.614L179.614 58.6366H112.032L112.032 196.47Z" fill="#00933C"/>
<path opacity="0.33" d="M174.134 190.174V64.838H112.031V190.174H174.134Z" fill="white"/>
<mask id="mask1_199_2046" style="mask-type:luminance" maskUnits="userSpaceOnUse" x="112" y="64" width="63" height="127">
<path d="M174.135 190.175V64.8391H112.033V190.175H174.135Z" fill="white"/>
</mask>
<g mask="url(#mask1_199_2046)">
<path d="M198.707 99.6086H147.337C147.158 76.3092 147.01 43.013 147.302 39.9456C147.286 40.1014 147.187 40.9257 146.67 41.8272L139.498 36.4109C138.724 37.7616 138.7 38.9398 138.637 42.0881C138.602 43.8743 138.577 46.4403 138.563 49.7156C138.54 55.1962 138.549 62.7625 138.588 72.205C138.655 88.2671 138.789 104.422 138.791 104.583L138.832 109.463H157.245V144.058H122.021L99.9319 110.234H68.2142L110.444 54.297L103.957 47.8424L56.8543 110.234H35.4351C35.4653 104.196 35.516 93.4625 35.5463 82.7744C35.5727 73.3341 35.5788 65.7754 35.5637 60.3084C35.5334 49.4063 35.4774 49.2785 35.1687 48.5691L31.084 50.9135C30.9206 50.5377 30.8843 50.2253 30.879 50.1664C31.0938 52.4548 30.9978 85.6716 30.8699 110.234H7.54029C3.21195 92.136 -7.02142 49.3776 -7.36869 48.1827L-15.5132 51.2992L-15.5328 51.2281C-15.0865 52.9062 -5.92288 91.162 0.12817 116.466L0.994446 120.089H49.4149L19.7642 159.365H-42.6748V169.219H23.684L60.7749 120.089H95.6391L111.293 144.059H69.029V214.298H73.5957V149.3H114.717L153.509 208.699L160.378 202.788L125.447 149.3H161.813V109.463H198.707V99.6086Z" fill="white"/>
</g>
<path d="M112.031 196.471L72.5088 204.924V49.9814L112.031 58.6383V196.471Z" fill="#007630"/>
<g style="mix-blend-mode:soft-light" opacity="0.33">
<path d="M72.5088 197.856V57.0476L112.031 64.9232V190.183L72.5088 197.856Z" fill="white"/>
</g>
<mask id="mask2_199_2046" style="mask-type:luminance" maskUnits="userSpaceOnUse" x="72" y="57" width="41" height="141">
<path d="M72.5107 197.857V57.0486L112.033 64.9242V190.184L72.5107 197.857Z" fill="white"/>
</mask>
<g mask="url(#mask2_199_2046)">
<path d="M151.531 103.235L129.398 101.24C129.315 79.2115 129.246 47.7234 129.382 44.8603C129.375 45.0062 129.328 45.7715 129.087 46.558L125.708 40.4604C125.339 41.6477 125.327 42.7722 125.297 45.7791C125.28 47.486 125.268 49.9408 125.261 53.0754C125.251 58.323 125.255 65.5717 125.274 74.6195C125.305 90.0085 125.37 105.486 125.37 105.64L125.39 110.314L133.936 110.82V143.016L117.146 143.845L105.61 109.928L87.4783 108.898L111.204 54.1969L107.775 46.8636L80.4815 108.501L66.482 107.706C66.5024 100.81 66.5372 88.5535 66.5576 76.3483C66.5758 65.5695 66.5796 56.9376 66.569 50.6925C66.5485 38.2362 66.5107 38.0812 66.3004 37.2176L63.5003 39.2163C63.3876 38.7558 63.3626 38.3898 63.3588 38.3217C63.5071 40.9935 63.4413 79.2402 63.352 107.529L46.4782 106.571C43.1758 84.3857 35.1365 30.4196 34.8581 28.8678L28.2086 31.1297L28.1919 31.036C28.5619 33.2427 36.0156 82.3666 40.7873 113.87L41.4614 118.319L75.7416 119.205L55.5072 164.901L4.31836 169.887V183.068L58.3133 176.138L82.926 119.391L103.266 119.917L111.645 144.118L87.9671 145.287V220.789L90.6937 220.054V150.742L113.42 149.246L132.239 203.604L135.34 197.346L118.859 148.889L135.981 147.762V110.943L151.529 111.863V103.236L151.531 103.235Z" fill="#9CB3A5"/>
</g>
<path d="M29.8809 73.6863C29.4617 73.6863 29.088 73.3898 29.0048 72.9633L28.5175 70.4579C28.423 69.9739 28.74 69.505 29.2242 69.4104C29.7076 69.3152 30.1775 69.6328 30.272 70.1168L30.7593 72.6222C30.8538 73.1063 30.5368 73.5751 30.0526 73.6697C29.9951 73.681 29.9376 73.6863 29.8809 73.6863Z" fill="url(#paint0_linear_199_2046)"/>
<path d="M36.3785 107.095C35.9594 107.095 35.5856 106.798 35.5024 106.372L34.419 100.803C34.3244 100.319 34.6414 99.8506 35.1256 99.7561C35.6091 99.6608 36.0789 99.9784 36.1735 100.462L37.2569 106.031C37.3515 106.515 37.0345 106.984 36.5503 107.078C36.4928 107.089 36.4353 107.095 36.3785 107.095ZM34.2125 95.9589C33.7933 95.9589 33.4196 95.6625 33.3364 95.2359L32.2537 89.6677C32.1591 89.1837 32.4761 88.7148 32.9603 88.6202C33.4438 88.5257 33.9136 88.8418 34.0082 89.3266L35.0908 94.8949C35.1854 95.3789 34.8684 95.8477 34.3842 95.9423C34.3267 95.9536 34.2692 95.9589 34.2125 95.9589ZM32.0464 84.8224C31.6273 84.8224 31.2535 84.5259 31.1703 84.0994L30.0869 78.5311C29.9923 78.0471 30.3093 77.5782 30.7935 77.4837C31.277 77.3884 31.7468 77.706 31.8414 78.19L32.9248 83.7583C33.0193 84.2423 32.7023 84.7112 32.2181 84.8057C32.1606 84.8171 32.1031 84.8224 32.0464 84.8224Z" fill="#4CB377"/>
<path d="M40.5028 115.167H37.9494C37.5219 115.167 37.1542 114.864 37.0725 114.444L36.5853 111.939C36.4907 111.455 36.8077 110.986 37.2919 110.892C37.7754 110.797 38.2452 111.113 38.3398 111.598L38.6863 113.38H40.5028C40.9961 113.38 41.3963 113.78 41.3963 114.274C41.3963 114.767 40.9961 115.167 40.5028 115.167V115.167Z" fill="#4CB377"/>
<path d="M97.5596 115.167H92.8046C92.3113 115.167 91.9111 114.767 91.9111 114.274C91.9111 113.781 92.3113 113.381 92.8046 113.381H97.5596C98.0529 113.381 98.4531 113.781 98.4531 114.274C98.4531 114.767 98.0529 115.167 97.5596 115.167ZM88.0503 115.167H83.2952C82.8019 115.167 82.4017 114.767 82.4017 114.274C82.4017 113.781 82.8019 113.381 83.2952 113.381H88.0503C88.5436 113.381 88.9438 113.781 88.9438 114.274C88.9438 114.767 88.5436 115.167 88.0503 115.167ZM78.5409 115.167H73.7859C73.2926 115.167 72.8924 114.767 72.8924 114.274C72.8924 113.781 73.2926 113.381 73.7859 113.381H78.5409C79.0342 113.381 79.4345 113.781 79.4345 114.274C79.4345 114.767 79.0342 115.167 78.5409 115.167ZM69.0316 115.167H64.2766C63.7833 115.167 63.383 114.767 63.383 114.274C63.383 113.781 63.7833 113.381 64.2766 113.381H69.0316C69.5249 113.381 69.9251 113.781 69.9251 114.274C69.9251 114.767 69.5249 115.167 69.0316 115.167ZM59.5223 115.167H54.7672C54.2739 115.167 53.8737 114.767 53.8737 114.274C53.8737 113.781 54.2739 113.381 54.7672 113.381H59.5223C60.0156 113.381 60.4158 113.781 60.4158 114.274C60.4158 114.767 60.0156 115.167 59.5223 115.167ZM50.0129 115.167H45.2579C44.7646 115.167 44.3644 114.767 44.3644 114.274C44.3644 113.781 44.7646 113.381 45.2579 113.381H50.0129C50.5062 113.381 50.9065 113.781 50.9065 114.274C50.9065 114.767 50.5062 115.167 50.0129 115.167Z" fill="#4CB377"/>
<path d="M105.893 117.505C105.549 117.505 105.221 117.305 105.075 116.97L104.283 115.167H102.314C101.821 115.167 101.42 114.767 101.42 114.274C101.42 113.781 101.821 113.381 102.314 113.381H104.867C105.222 113.381 105.543 113.59 105.686 113.915L106.712 116.252C106.91 116.704 106.704 117.231 106.253 117.429C106.136 117.48 106.014 117.505 105.894 117.505H105.893Z" fill="#4CB377"/>
<path d="M140.152 182.355C139.846 182.355 139.549 182.199 139.382 181.918L136.705 177.403C136.454 176.979 136.594 176.43 137.019 176.179C137.443 175.927 137.992 176.067 138.243 176.492L140.92 181.007C141.172 181.431 141.031 181.98 140.606 182.231C140.463 182.315 140.307 182.355 140.152 182.355ZM134.799 173.327C134.493 173.327 134.196 173.17 134.03 172.889L131.353 168.375C131.101 167.95 131.242 167.402 131.666 167.151C132.09 166.899 132.638 167.039 132.89 167.464L135.567 171.978C135.819 172.402 135.678 172.951 135.254 173.202C135.111 173.286 134.954 173.327 134.799 173.327ZM129.446 164.298C129.141 164.298 128.843 164.141 128.677 163.86L126 159.346C125.748 158.921 125.889 158.373 126.313 158.122C126.738 157.87 127.286 158.01 127.537 158.435L130.214 162.949C130.466 163.374 130.325 163.922 129.901 164.173C129.758 164.258 129.601 164.298 129.446 164.298ZM124.093 155.269C123.788 155.269 123.49 155.112 123.324 154.831L120.647 150.316C120.395 149.892 120.536 149.344 120.961 149.092C121.385 148.841 121.933 148.981 122.185 149.406L124.861 153.92C125.113 154.345 124.973 154.893 124.548 155.144C124.405 155.229 124.249 155.269 124.093 155.269ZM118.74 146.24C118.434 146.24 118.137 146.083 117.971 145.802L117.06 144.266C117.041 144.235 117.025 144.203 117.01 144.169L115.618 140.999C115.42 140.548 115.626 140.02 116.078 139.822C116.53 139.623 117.057 139.83 117.255 140.281L118.624 143.402L119.507 144.892C119.759 145.316 119.618 145.864 119.194 146.115C119.051 146.2 118.894 146.24 118.739 146.24H118.74ZM114.329 136.728C113.985 136.728 113.657 136.528 113.511 136.193L111.402 131.387C111.204 130.936 111.41 130.409 111.861 130.21C112.314 130.011 112.84 130.218 113.038 130.669L115.147 135.475C115.345 135.927 115.139 136.454 114.688 136.652C114.571 136.704 114.449 136.728 114.329 136.728ZM110.111 127.117C109.767 127.117 109.439 126.917 109.293 126.582L107.184 121.776C106.986 121.324 107.192 120.797 107.643 120.599C108.096 120.4 108.622 120.607 108.821 121.058L110.929 125.864C111.127 126.316 110.922 126.843 110.47 127.041C110.353 127.092 110.232 127.117 110.111 127.117Z" fill="#4CB377"/>
<path d="M144.13 189.064C143.824 189.064 143.527 188.907 143.361 188.626L142.059 186.43C141.807 186.006 141.948 185.458 142.373 185.207C142.797 184.955 143.345 185.095 143.597 185.52L144.898 187.715C145.15 188.14 145.009 188.688 144.585 188.939C144.442 189.024 144.285 189.064 144.13 189.064Z" fill="url(#paint1_linear_199_2046)"/>
<path d="M40.2579 49.9458C40.2579 54.5612 33.7892 62.9836 30.862 66.5584C30.1335 67.4477 28.7716 67.4477 28.0431 66.5584C25.1159 62.9836 18.6472 54.5612 18.6472 49.9458C18.6472 43.9805 23.4847 39.145 29.4526 39.145C35.4204 39.145 40.2579 43.9805 40.2579 49.9458Z" fill="#57A4CA"/>
<path d="M29.452 55.9687C32.7801 55.9687 35.4781 53.2719 35.4781 49.9452C35.4781 46.6185 32.7801 43.9216 29.452 43.9216C26.1239 43.9216 23.4259 46.6185 23.4259 49.9452C23.4259 53.2719 26.1239 55.9687 29.452 55.9687Z" fill="white"/>
<path d="M31.6279 72.1577C31.8215 70.954 31.0022 69.8214 29.7979 69.6279C28.5937 69.4345 27.4606 70.2535 27.267 71.4572C27.0735 72.6609 27.8928 73.7935 29.0971 73.987C30.3013 74.1804 31.4344 73.3615 31.6279 72.1577Z" fill="#57A4CA"/>
<path d="M205.891 80.7917C205.891 104.527 172.625 147.839 157.57 166.224C153.824 170.799 146.821 170.799 143.075 166.224C128.02 147.839 94.7539 104.527 94.7539 80.7917C94.7539 50.1151 119.633 25.2465 150.322 25.2465C181.012 25.2465 205.891 50.1151 205.891 80.7917Z" fill="#1F4257"/>
<path d="M150.322 204.602C156.595 204.602 161.68 199.519 161.68 193.249C161.68 186.979 156.595 181.896 150.322 181.896C144.05 181.896 138.965 186.979 138.965 193.249C138.965 199.519 144.05 204.602 150.322 204.602Z" fill="#666301"/>
<path d="M204.387 80.7917C204.387 104.527 171.121 147.839 156.066 166.224C152.32 170.799 145.317 170.799 141.57 166.224C126.516 147.839 93.2498 104.527 93.2498 80.7917C93.2498 50.1151 118.129 25.2465 148.818 25.2465C179.508 25.2465 204.387 50.1151 204.387 80.7917Z" fill="#659DBF"/>
<path d="M148.819 111.771C165.935 111.771 179.81 97.9014 179.81 80.7925C179.81 63.6836 165.935 49.8141 148.819 49.8141C131.703 49.8141 117.828 63.6836 117.828 80.7925C117.828 97.9014 131.703 111.771 148.819 111.771Z" fill="white"/>
<path d="M169.998 97.7874L130.926 98.7432C129.342 98.7819 127.989 97.61 127.802 96.0376L124.7 69.9868C124.489 68.2136 125.831 66.6354 127.616 66.5577L169.13 64.7512C170.847 64.6766 172.292 66.0249 172.334 67.7425L172.992 94.6439C173.034 96.3384 171.693 97.7457 169.998 97.7874Z" fill="#00933C"/>
<path opacity="0.19" d="M168.413 96.4169L132.331 97.2998C130.868 97.3354 129.619 96.2782 129.447 94.8587L126.595 71.3427C126.401 69.7421 127.642 68.3165 129.29 68.2456L167.629 66.5938C169.215 66.5256 170.548 67.7423 170.586 69.2927L171.18 93.5776C171.218 95.1073 169.979 96.3786 168.413 96.4169H168.413Z" fill="white"/>
<path opacity="0.52" d="M142.845 89.9981L132.109 90.4794C131.744 90.4956 131.399 89.5561 131.32 88.3317L130.692 78.5829C130.606 77.2398 130.872 76.0866 131.272 76.0686L142.197 75.5788C142.58 75.5615 142.937 76.5913 142.995 77.8788L143.432 87.636C143.49 88.9232 143.227 89.9808 142.844 89.9981H142.845Z" fill="white"/>
<path d="M168.85 76.452L144.502 77.5435C144.388 77.5486 144.291 77.4604 144.286 77.3461L144.228 76.044C144.222 75.9297 144.311 75.833 144.425 75.8279L168.773 74.7364C168.888 74.7313 168.984 74.8195 168.99 74.9338L169.048 76.2359C169.053 76.3502 168.965 76.4469 168.85 76.452Z" fill="white"/>
<path d="M169.246 82.5547L144.898 83.6462C144.783 83.6513 144.687 83.5631 144.682 83.4488L144.623 82.1467C144.618 82.0324 144.706 81.9357 144.821 81.9306L169.169 80.8391C169.283 80.8341 169.38 80.9222 169.385 81.0365L169.444 82.3387C169.449 82.453 169.36 82.5496 169.246 82.5547Z" fill="white"/>
<path d="M157.824 73.8332L130.931 75.0387C130.816 75.0437 130.72 74.9556 130.714 74.8413L130.656 73.5391C130.651 73.4252 130.739 73.3282 130.854 73.3231L157.747 72.1176C157.862 72.1126 157.958 72.2007 157.963 72.315L158.022 73.6172C158.027 73.7315 157.939 73.8281 157.824 73.8332Z" fill="white"/>
<path opacity="0.81" d="M168.985 79.4456L144.636 80.5371C144.522 80.5422 144.425 80.454 144.42 80.3397L144.362 79.0375C144.357 78.9232 144.445 78.8266 144.559 78.8215L168.908 77.73C169.022 77.7249 169.119 77.8131 169.124 77.9274L169.182 79.2295C169.187 79.3438 169.099 79.4405 168.985 79.4456Z" fill="white"/>
<path opacity="0.81" d="M169.414 85.7136L145.066 86.8051C144.951 86.8102 144.855 86.722 144.849 86.6077L144.791 85.3056C144.786 85.1913 144.874 85.0946 144.989 85.0896L169.337 83.9981C169.451 83.993 169.548 84.0812 169.553 84.1955L169.611 85.4976C169.617 85.6119 169.528 85.7086 169.414 85.7136Z" fill="white"/>
<path opacity="0.81" d="M169.81 91.8157L145.462 92.9072C145.348 92.9123 145.251 92.8241 145.246 92.7098L145.187 91.4077C145.182 91.2934 145.271 91.1967 145.385 91.1916L169.733 90.1001C169.848 90.095 169.944 90.1832 169.949 90.2975L170.008 91.5996C170.013 91.7139 169.925 91.8106 169.81 91.8157Z" fill="white"/>
<path d="M169.548 88.7072L145.2 89.7987C145.086 89.8038 144.989 89.7156 144.984 89.6013L144.926 88.2992C144.92 88.1852 145.009 88.0882 145.123 88.0831L169.471 86.9917C169.586 86.9866 169.682 87.0748 169.688 87.1891L169.746 88.4912C169.751 88.6055 169.663 88.7022 169.548 88.7072Z" fill="white"/>
<path d="M148.818 204.602C155.091 204.602 160.176 199.519 160.176 193.249C160.176 186.979 155.091 181.896 148.818 181.896C142.546 181.896 137.461 186.979 137.461 193.249C137.461 199.519 142.546 204.602 148.818 204.602Z" fill="#FEF703"/>
<g style="mix-blend-mode:soft-light" opacity="0.5">
<path d="M148.573 143.418C152.099 120.211 167.431 112.782 164.799 90.8693C161.764 65.5969 139.378 58.8662 138.838 36.3738C138.751 32.7529 139.244 29.2605 140.173 25.9171C113.59 30.0682 93.2507 53.0552 93.2507 80.7915C93.2507 104.526 126.516 147.839 141.571 166.224C143.777 168.917 147.109 170.022 150.243 169.545C147.549 159.38 147.467 150.7 148.573 143.417V143.418Z" fill="white"/>
</g>
<path d="M110.887 125.467C110.887 125.467 111.633 121.572 112.38 120.412C113.126 119.252 114.519 118.505 114.519 118.505C114.519 118.505 114.809 118.983 113.885 119.987C112.96 120.992 113.731 121.091 113.885 121.414C114.038 121.737 113.707 122.898 113.043 123.312C112.38 123.726 112.131 125.985 112.131 125.985L110.887 125.467V125.467Z" fill="url(#paint2_linear_199_2046)"/>
<path d="M113.043 124.969C112.242 124.831 111.44 124.693 110.639 124.555C107.77 129.872 104.409 133.288 102.121 135.272C99.4165 137.616 97.6704 139.13 94.8014 139.888C90.5631 141.01 86.9029 139.693 86.427 140.883C86.1947 141.464 87.0012 142.094 88.2927 143.638C92.0536 148.136 91.698 150.554 93.7649 151.222C95.4733 151.773 97.1922 150.587 100.108 148.508C102.761 146.616 106.086 144.244 108.897 139.722C112.667 133.657 113.045 127.69 113.043 124.969Z" fill="#FEF703"/>
<path d="M77.7207 141.366C77.331 141.513 71.3882 143.875 70.1663 150.076C70.068 150.576 69.1132 155.903 72.7265 159.666C76.7787 163.886 84.5828 163.781 87.6802 160.254C88.4027 159.431 88.7832 158.52 88.9974 157.754L88.181 155.586C87.1854 154.385 85.8296 154.1 85.1056 153.922C83.3208 153.483 81.9726 154.277 80.9505 153.417C80.3846 152.94 80.2726 152.255 80.172 151.643C79.83 149.558 81.0072 148.275 81.0927 146.989C81.157 146.028 81.4937 143.922 80.2385 142.549C79.4441 141.679 78.3433 141.442 77.7207 141.366Z" fill="#FEF703"/>
<path d="M75.4047 210.463C75.3351 210.082 74.1019 209.736 73.4914 210.247C73.188 210.501 72.9792 211.015 73.1547 211.248C73.2182 211.332 72.9572 211.481 73.2076 211.484C74.0384 211.493 75.4736 210.842 75.4047 210.463V210.463Z" fill="url(#paint3_linear_199_2046)"/>
<path d="M74.1127 210.602L72.8447 210.423C73.4326 209.716 73.3236 207.464 73.3236 207.464L74.6726 207.765C74.6726 207.765 74.519 208.383 74.2572 209.295C74.168 209.607 74.1279 210.096 74.1127 210.602Z" fill="#B56F23"/>
<path d="M74.2249 210.447C74.2249 210.447 72.6981 210.095 72.5332 210.398C72.3683 210.7 72.2396 211.511 73.2088 211.485C74.1772 211.459 74.3119 210.703 74.2256 210.447H74.2249Z" fill="url(#paint4_linear_199_2046)"/>
<path d="M92.807 211.895C92.6852 211.527 91.4157 211.357 90.8823 211.949C90.6175 212.242 90.4828 212.781 90.6894 212.987C90.7643 213.062 90.5267 213.246 90.7749 213.213C91.5988 213.106 92.9281 212.261 92.807 211.895Z" fill="url(#paint5_linear_199_2046)"/>
<path d="M91.5458 212.213H90.2649C90.7476 211.431 90.3247 209.216 90.3247 209.216L91.7024 209.325C91.7024 209.325 91.6366 209.959 91.5057 210.898C91.461 211.219 91.4898 211.709 91.5458 212.212V212.213Z" fill="#B56F23"/>
<path d="M94.8654 163.799C95.4585 165.757 96.3059 168.918 96.8514 172.884C98.4069 184.196 95.1007 184.557 95.718 197.093C95.9155 201.094 92.2499 210.32 91.9269 210.524C91.7703 210.539 91.6008 210.55 91.42 210.544C91.1014 210.534 90.652 210.486 90.1293 210.329C89.549 210.229 87.4555 204.562 87.9405 201.193C88.284 198.808 88.1841 196.249 87.9851 191.13C87.9526 190.301 85.8297 174.993 85.8297 174.993C85.1836 180.659 84.4414 185.473 83.7975 189.206C81.7291 201.197 75.0031 208.456 74.6521 208.572C74.5825 208.6 73.9515 208.83 73.4355 208.489C73.2055 208.338 73.1276 208.143 73.1276 208.143C72.9475 208.002 73.1806 196.171 75.2324 187.266C78.2102 174.341 76.9135 171.317 77.8569 165.544C78.6733 160.549 94.8646 163.799 94.8646 163.799L94.8654 163.799Z" fill="#132835"/>
<path d="M82.8376 140.357C84.8146 140.299 89.3585 139.601 91.8613 141.852C91.9051 141.891 91.3922 142.165 91.6441 142.461C91.8787 142.735 92.6821 143.696 93.4115 144.995C93.9396 145.936 94.4162 147.032 94.8966 148.667C95.7447 151.55 95.9876 154.005 96.0693 155.074C96.527 161.089 96.0731 163.863 95.6615 165.75C93.8737 166.668 89.2685 168.31 83.7803 167.494C81.2738 167.121 79.2681 166.288 77.8571 165.544C79.281 161.234 78.1643 158.928 77.637 156.802C76.8857 153.771 76.8736 154 76.2547 151.592C75.2334 147.62 75.0662 143.56 75.7675 142.729C77.6589 140.489 81.0673 140.408 82.8376 140.356V140.357Z" fill="#FEF703"/>
<path d="M91.6354 212.044C91.6354 212.044 90.0746 211.909 89.9536 212.232C89.8325 212.555 89.8189 213.376 90.7745 213.214C91.73 213.053 91.7573 212.286 91.6354 212.043V212.044Z" fill="url(#paint6_linear_199_2046)"/>
<path d="M86.9913 136.654C87.3166 135.496 86.7477 134.424 86.6229 134.193C86.0986 133.226 85.9639 133.093 85.7135 132.926L85.3654 132.712C85.3654 132.712 85.345 132.703 85.3238 132.696C85.1006 132.616 84.3395 132.593 84.1859 132.626C83.6934 132.731 83.1691 134.736 83.3189 137.571C83.2985 137.679 83.2788 137.788 83.2599 137.898C83.182 138.346 83.1207 138.784 83.073 139.213C83.0276 139.624 82.7545 139.973 82.3679 140.119C79.7517 141.106 79.7562 140.318 79.4861 141.167C79.3386 141.63 82.3096 142.377 83.7721 142.209C87.0609 142.233 89.7361 141.883 89.4486 141.365C89.3208 141.135 86.7727 140.47 86.0562 139.811C85.4002 139.206 85.4532 138.583 85.3995 138.136C85.5985 138.033 86.7522 137.506 86.9913 136.653V136.654Z" fill="#B56F23"/>
<path d="M86.3867 131.907C86.3837 132.785 85.9698 133.722 85.7588 133.874C85.7315 133.893 85.5779 134.014 85.4402 134.221C85.4213 134.249 85.4047 134.282 85.3903 134.324C85.1981 134.878 86.078 135.529 85.9086 135.777C85.7852 135.957 85.1868 135.717 85.1157 135.872C85.0483 136.018 85.5462 136.32 85.4697 136.496C85.4122 136.628 85.1066 136.507 84.9137 136.709C84.8176 136.81 84.8456 136.89 84.7434 137.197C84.6859 137.371 84.605 137.563 84.5429 137.669C84.2396 138.184 83.3793 138.373 83.2137 138.166C83.1675 138.109 83.2068 138.06 83.1599 137.868C83.1599 137.868 83.1161 137.689 82.992 137.482C82.8142 137.186 82.3845 136.975 81.9517 136.664C81.149 136.086 81.0605 135.674 81.0552 135.448C80.9281 130.387 86.3928 130.284 86.3875 131.907L86.3867 131.907Z" fill="#26264F"/>
<path d="M85.5926 135.571C85.377 135.276 84.9987 135.553 84.9965 135.936C84.9942 136.318 85.3649 136.716 85.725 136.641C86.0852 136.565 85.8824 135.969 85.5926 135.571Z" fill="#9B5D1F"/>
<path d="M78.4868 162.832C78.4868 162.832 78.4815 162.832 78.4785 162.832C78.4384 162.828 78.4104 162.792 78.4142 162.753C78.648 160.654 78.2122 159.127 77.8286 157.782C77.734 157.45 77.644 157.136 77.5661 156.822C77.1394 155.101 76.9525 154.437 76.755 153.734C76.6264 153.276 76.4933 152.802 76.2867 152.011C76.2769 151.973 76.2996 151.933 76.3382 151.923C76.3767 151.912 76.4161 151.936 76.4259 151.975C76.6317 152.765 76.7649 153.238 76.8935 153.695C77.0917 154.399 77.2786 155.064 77.7053 156.787C77.7825 157.099 77.8717 157.412 77.9663 157.743C78.3537 159.101 78.7932 160.641 78.5572 162.77C78.5534 162.807 78.5216 162.834 78.4853 162.834L78.4868 162.832Z" fill="#9B305E"/>
<path d="M85.4177 134.931L85.9171 135.58C85.9171 135.58 86.4558 136.376 86.7697 135.94C87.027 135.584 87.0936 135.592 87.1087 135.607C87.1117 135.61 87.1125 135.614 87.1132 135.614C87.1178 135.612 87.0754 135.437 87.0376 135.282C87.1707 135.472 87.3538 135.782 87.465 136.198C87.5732 136.603 87.6882 137.036 87.4597 137.452C87.4469 137.476 87.1949 137.919 86.7251 138.026C86.7251 138.026 86.5405 138.068 85.7597 137.931C85.7597 137.931 86.6124 137.312 86.626 137.165C86.6616 136.766 86.107 136.55 85.6954 135.73C85.5365 135.414 85.4586 135.127 85.417 134.93L85.4177 134.931Z" fill="#26264F"/>
<path d="M63.8946 101.583L52.3044 101.867C51.8346 101.878 51.4331 101.531 51.3775 101.064L50.4574 93.3365C50.3948 92.8105 50.7928 92.3423 51.3224 92.3193L63.6372 91.7834C64.1466 91.7613 64.5751 92.1612 64.5876 92.6707L64.783 100.651C64.7952 101.153 64.3975 101.571 63.8946 101.583Z" fill="#00933C"/>
<path opacity="0.19" d="M63.4245 101.177L52.7209 101.439C52.287 101.449 51.9165 101.136 51.8653 100.714L51.0195 93.7386C50.9619 93.2638 51.3299 92.8409 51.8188 92.8199L63.1917 92.3299C63.6621 92.3097 64.0576 92.6706 64.0688 93.1305L64.2452 100.334C64.2563 100.788 63.8887 101.165 63.4244 101.177H63.4245Z" fill="white"/>
<path opacity="0.52" d="M55.8398 99.2722L52.6551 99.415C52.5468 99.4198 52.4444 99.1411 52.4211 98.7779L52.2348 95.886C52.2092 95.4876 52.2881 95.1455 52.4068 95.1402L55.6477 94.9949C55.7612 94.9897 55.8671 95.2952 55.8842 95.6771L56.0141 98.5715C56.0312 98.9534 55.9531 99.2671 55.8396 99.2722H55.8398Z" fill="white"/>
<path d="M63.554 95.7853L56.3313 96.1091C56.2973 96.1106 56.2686 96.0844 56.2671 96.0505L56.2498 95.6642C56.2483 95.6303 56.2745 95.6017 56.3084 95.6001L63.5311 95.2764C63.5651 95.2749 63.5937 95.301 63.5953 95.3349L63.6126 95.7212C63.6141 95.7551 63.5879 95.7838 63.554 95.7853Z" fill="white"/>
<path d="M63.6714 97.065L56.4487 97.3888C56.4148 97.3903 56.3861 97.3641 56.3846 97.3302L56.3672 96.944C56.3657 96.9101 56.3919 96.8814 56.4258 96.8799L63.6486 96.5561C63.6824 96.5546 63.7112 96.5807 63.7127 96.6147L63.73 97.0009C63.7315 97.0348 63.7053 97.0635 63.6714 97.065Z" fill="white"/>
<path d="M63.1088 93.9985L52.1551 94.4365C52.1085 94.4384 52.0691 94.4063 52.0671 94.3648L52.0433 93.8917C52.0412 93.8502 52.0772 93.815 52.1237 93.8131L63.0774 93.3751C63.124 93.3733 63.1634 93.4053 63.1655 93.4469L63.1892 93.92C63.1913 93.9615 63.1554 93.9967 63.1088 93.9985Z" fill="white"/>
<path d="M63.761 98.3586L56.5383 98.6824C56.5044 98.6839 56.4757 98.6577 56.4742 98.6238L56.4568 98.2375C56.4553 98.2037 56.4815 98.175 56.5154 98.1734L63.7382 97.8497C63.7721 97.8482 63.8008 97.8743 63.8023 97.9082L63.8196 98.2945C63.8211 98.3284 63.7949 98.3571 63.761 98.3586Z" fill="white"/>
<defs>
<linearGradient id="paint0_linear_199_2046" x1="25.0237" y1="184.212" x2="29.7211" y2="69.4065" gradientUnits="userSpaceOnUse">
<stop stop-color="#FFC444"/>
<stop offset="1" stop-color="#F36F56"/>
</linearGradient>
<linearGradient id="paint1_linear_199_2046" x1="143.398" y1="189.035" x2="148.095" y2="74.235" gradientUnits="userSpaceOnUse">
<stop stop-color="#FFC444"/>
<stop offset="1" stop-color="#F36F56"/>
</linearGradient>
<linearGradient id="paint2_linear_199_2046" x1="113.925" y1="119.369" x2="110.117" y2="128.138" gradientUnits="userSpaceOnUse">
<stop stop-color="#FFC444"/>
<stop offset="1" stop-color="#F36F56"/>
</linearGradient>
<linearGradient id="paint3_linear_199_2046" x1="76.0894" y1="209.345" x2="73.3753" y2="211.15" gradientUnits="userSpaceOnUse">
<stop stop-color="#444B8C"/>
<stop offset="1" stop-color="#26264F"/>
</linearGradient>
<linearGradient id="paint4_linear_199_2046" x1="75.8857" y1="209.038" x2="73.1708" y2="210.843" gradientUnits="userSpaceOnUse">
<stop stop-color="#444B8C"/>
<stop offset="1" stop-color="#26264F"/>
</linearGradient>
<linearGradient id="paint5_linear_199_2046" x1="93.3306" y1="210.708" x2="90.8953" y2="212.875" gradientUnits="userSpaceOnUse">
<stop stop-color="#444B8C"/>
<stop offset="1" stop-color="#26264F"/>
</linearGradient>
<linearGradient id="paint6_linear_199_2046" x1="93.085" y1="210.434" x2="90.6505" y2="212.601" gradientUnits="userSpaceOnUse">
<stop stop-color="#444B8C"/>
<stop offset="1" stop-color="#26264F"/>
</linearGradient>
</defs>
</svg>
